<svg id="my-svg" width="100%" xmlns="http://www.w3.org/2000/svg" xmlns:xlink="http://www.w3.org/1999/xlink" class="flowchart" style="max-width: 2241.7px; background-color: white;" viewBox="0 0 2241.703125 1332" role="graphics-document document" aria-roledescription="flowchart-v2"><style>#my-svg{font-family:"trebuchet ms",verdana,arial,sans-serif;font-size:16px;fill:#333;}@keyframes edge-animation-frame{from{stroke-dashoffset:0;}}@keyframes dash{to{stroke-dashoffset:0;}}#my-svg .edge-animation-slow{stroke-dasharray:9,5!important;stroke-dashoffset:900;animation:dash 50s linear infinite;stroke-linecap:round;}#my-svg .edge-animation-fast{stroke-dasharray:9,5!important;stroke-dashoffset:900;animation:dash 20s linear infinite;stroke-linecap:round;}#my-svg .error-icon{fill:#552222;}#my-svg .error-text{fill:#552222;stroke:#552222;}#my-svg .edge-thickness-normal{stroke-width:1px;}#my-svg .edge-thickness-thick{stroke-width:3.5px;}#my-svg .edge-pattern-solid{stroke-dasharray:0;}#my-svg .edge-thickness-invisible{stroke-width:0;fill:none;}#my-svg .edge-pattern-dashed{stroke-dasharray:3;}#my-svg .edge-pattern-dotted{stroke-dasharray:2;}#my-svg .marker{fill:#333333;stroke:#333333;}#my-svg .marker.cross{stroke:#333333;}#my-svg svg{font-family:"trebuchet ms",verdana,arial,sans-serif;font-size:16px;}#my-svg p{margin:0;}#my-svg .label{font-family:"trebuchet ms",verdana,arial,sans-serif;color:#333;}#my-svg .cluster-label text{fill:#333;}#my-svg .cluster-label span{color:#333;}#my-svg .cluster-label span p{background-color:transparent;}#my-svg .label text,#my-svg span{fill:#333;color:#333;}#my-svg .node rect,#my-svg .node circle,#my-svg .node ellipse,#my-svg .node polygon,#my-svg .node path{fill:#ECECFF;stroke:#9370DB;stroke-width:1px;}#my-svg .rough-node .label text,#my-svg .node .label text,#my-svg .image-shape .label,#my-svg .icon-shape .label{text-anchor:middle;}#my-svg .node .katex path{fill:#000;stroke:#000;stroke-width:1px;}#my-svg .rough-node .label,#my-svg .node .label,#my-svg .image-shape .label,#my-svg .icon-shape .label{text-align:center;}#my-svg .node.clickable{cursor:pointer;}#my-svg .root .anchor path{fill:#333333!important;stroke-width:0;stroke:#333333;}#my-svg .arrowheadPath{fill:#333333;}#my-svg .edgePath .path{stroke:#333333;stroke-width:2.0px;}#my-svg .flowchart-link{stroke:#333333;fill:none;}#my-svg .edgeLabel{background-color:rgba(232,232,232, 0.8);text-align:center;}#my-svg .edgeLabel p{background-color:rgba(232,232,232, 0.8);}#my-svg .edgeLabel rect{opacity:0.5;background-color:rgba(232,232,232, 0.8);fill:rgba(232,232,232, 0.8);}#my-svg .labelBkg{background-color:rgba(232, 232, 232, 0.5);}#my-svg .cluster rect{fill:#ffffde;stroke:#aaaa33;stroke-width:1px;}#my-svg .cluster text{fill:#333;}#my-svg .cluster span{color:#333;}#my-svg div.mermaidTooltip{position:absolute;text-align:center;max-width:200px;padding:2px;font-family:"trebuchet ms",verdana,arial,sans-serif;font-size:12px;background:hsl(80, 100%, 96.2745098039%);border:1px solid #aaaa33;border-radius:2px;pointer-events:none;z-index:100;}#my-svg .flowchartTitleText{text-anchor:middle;font-size:18px;fill:#333;}#my-svg rect.text{fill:none;stroke-width:0;}#my-svg .icon-shape,#my-svg .image-shape{background-color:rgba(232,232,232, 0.8);text-align:center;}#my-svg .icon-shape p,#my-svg .image-shape p{background-color:rgba(232,232,232, 0.8);padding:2px;}#my-svg .icon-shape rect,#my-svg .image-shape rect{opacity:0.5;background-color:rgba(232,232,232, 0.8);fill:rgba(232,232,232, 0.8);}#my-svg .label-icon{display:inline-block;height:1em;overflow:visible;vertical-align:-0.125em;}#my-svg .node .label-icon path{fill:currentColor;stroke:revert;stroke-width:revert;}#my-svg :root{--mermaid-font-family:"trebuchet ms",verdana,arial,sans-serif;}</style><g><marker id="my-svg_flowchart-v2-pointEnd" class="marker flowchart-v2" viewBox="0 0 10 10" refX="5" refY="5" markerUnits="userSpaceOnUse" markerWidth="8" markerHeight="8" orient="auto"><path d="M 0 0 L 10 5 L 0 10 z" class="arrowMarkerPath" style="stroke-width: 1; stroke-dasharray: 1, 0;"/></marker><marker id="my-svg_flowchart-v2-pointStart" class="marker flowchart-v2" viewBox="0 0 10 10" refX="4.5" refY="5" markerUnits="userSpaceOnUse" markerWidth="8" markerHeight="8" orient="auto"><path d="M 0 5 L 10 10 L 10 0 z" class="arrowMarkerPath" style="stroke-width: 1; stroke-dasharray: 1, 0;"/></marker><marker id="my-svg_flowchart-v2-circleEnd" class="marker flowchart-v2" viewBox="0 0 10 10" refX="11" refY="5" markerUnits="userSpaceOnUse" markerWidth="11" markerHeight="11" orient="auto"><circle cx="5" cy="5" r="5" class="arrowMarkerPath" style="stroke-width: 1; stroke-dasharray: 1, 0;"/></marker><marker id="my-svg_flowchart-v2-circleStart" class="marker flowchart-v2" viewBox="0 0 10 10" refX="-1" refY="5" markerUnits="userSpaceOnUse" markerWidth="11" markerHeight="11" orient="auto"><circle cx="5" cy="5" r="5" class="arrowMarkerPath" style="stroke-width: 1; stroke-dasharray: 1, 0;"/></marker><marker id="my-svg_flowchart-v2-crossEnd" class="marker cross flowchart-v2" viewBox="0 0 11 11" refX="12" refY="5.2" markerUnits="userSpaceOnUse" markerWidth="11" markerHeight="11" orient="auto"><path d="M 1,1 l 9,9 M 10,1 l -9,9" class="arrowMarkerPath" style="stroke-width: 2; stroke-dasharray: 1, 0;"/></marker><marker id="my-svg_flowchart-v2-crossStart" class="marker cross flowchart-v2" viewBox="0 0 11 11" refX="-1" refY="5.2" markerUnits="userSpaceOnUse" markerWidth="11" markerHeight="11" orient="auto"><path d="M 1,1 l 9,9 M 10,1 l -9,9" class="arrowMarkerPath" style="stroke-width: 2; stroke-dasharray: 1, 0;"/></marker><g class="root"><g class="clusters"><g class="cluster" id="TEST" data-look="classic"><rect style="" x="8" y="428" width="544.703125" height="405"/><g class="cluster-label" transform="translate(219.0546875, 428)"><foreignObject width="122.59375" height="24"><div xmlns="http://www.w3.org/1999/xhtml" style="display: table-cell; white-space: nowrap; line-height: 1.5; max-width: 200px; text-align: center;"><span class="nodeLabel"><p>Testing &amp; Quality</p></span></div></foreignObject></g></g><g class="cluster" id="DATA" data-look="classic"><rect style="" x="1684.75" y="64" width="310" height="452"/><g class="cluster-label" transform="translate(1791.546875, 64)"><foreignObject width="96.40625" height="24"><div xmlns="http://www.w3.org/1999/xhtml" style="display: table-cell; white-space: nowrap; line-height: 1.5; max-width: 200px; text-align: center;"><span class="nodeLabel"><p>Data / Config</p></span></div></foreignObject></g></g><g class="cluster" id="ENG" data-look="classic"><rect style="" x="1124.75" y="872" width="1108.953125" height="452"/><g class="cluster-label" transform="translate(1633.3359375, 872)"><foreignObject width="91.78125" height="24"><div xmlns="http://www.w3.org/1999/xhtml" style="display: table-cell; white-space: nowrap; line-height: 1.5; max-width: 200px; text-align: center;"><span class="nodeLabel"><p>Core Engines</p></span></div></foreignObject></g></g><g class="cluster" id="API" data-look="classic"><rect style="" x="802.703125" y="8" width="632.046875" height="844"/><g class="cluster-label" transform="translate(1085.234375, 8)"><foreignObject width="66.984375" height="24"><div xmlns="http://www.w3.org/1999/xhtml" style="display: table-cell; white-space: nowrap; line-height: 1.5; max-width: 200px; text-align: center;"><span class="nodeLabel"><p>API Layer</p></span></div></foreignObject></g></g><g class="cluster" id="UI" data-look="classic"><rect style="" x="8" y="29" width="544.703125" height="379"/><g class="cluster-label" transform="translate(250.8515625, 29)"><foreignObject width="59" height="24"><div xmlns="http://www.w3.org/1999/xhtml" style="display: table-cell; white-space: nowrap; line-height: 1.5; max-width: 200px; text-align: center;"><span class="nodeLabel"><p>UI Layer</p></span></div></foreignObject></g></g></g><g class="edgePaths"><path d="M213.531,285L218.393,285C223.255,285,232.979,285,248.367,285C263.755,285,284.807,285,295.333,285L305.859,285" id="L_USER_ST_0" class="edge-thickness-normal edge-pattern-solid edge-thickness-normal edge-pattern-solid flowchart-link" style=";" data-edge="true" data-et="edge" data-id="L_USER_ST_0" data-points="W3sieCI6MjEzLjUzMTI1LCJ5IjoyODV9LHsieCI6MjQyLjcwMzEyNSwieSI6Mjg1fSx7IngiOjMwOS44NTkzNzUsInkiOjI4NX1d" marker-end="url(#my-svg_flowchart-v2-pointEnd)"/><path d="M1071.453,184L1076.169,184C1080.885,184,1090.318,184,1099.201,184C1108.083,184,1116.417,184,1139.312,202.367C1162.208,220.733,1199.666,257.466,1218.395,275.833L1237.124,294.199" id="L_RFW_FA_0" class="edge-thickness-normal edge-pattern-solid edge-thickness-normal edge-pattern-solid flowchart-link" style=";" data-edge="true" data-et="edge" data-id="L_RFW_FA_0" data-points="W3sieCI6MTA3MS40NTMxMjUsInkiOjE4NH0seyJ4IjoxMDk5Ljc1LCJ5IjoxODR9LHsieCI6MTEyNC43NSwieSI6MTg0fSx7IngiOjEyMzkuOTgwMjYzMTU3ODk0OCwieSI6Mjk3fV0=" marker-end="url(#my-svg_flowchart-v2-pointEnd)"/><path d="M1074.75,333L1078.917,333C1083.083,333,1091.417,333,1099.75,333C1108.083,333,1116.417,333,1125.698,333.099C1134.979,333.198,1145.209,333.396,1150.324,333.495L1155.438,333.594" id="L_RST_FA_0" class="edge-thickness-normal edge-pattern-solid edge-thickness-normal edge-pattern-solid flowchart-link" style=";" data-edge="true" data-et="edge" data-id="L_RST_FA_0" data-points="W3sieCI6MTA3NC43NSwieSI6MzMzfSx7IngiOjEwOTkuNzUsInkiOjMzM30seyJ4IjoxMTI0Ljc1LCJ5IjozMzN9LHsieCI6MTE1OS40Mzc1LCJ5IjozMzMuNjcxMzcwOTY3NzQxOTV9XQ==" marker-end="url(#my-svg_flowchart-v2-pointEnd)"/><path d="M1000.734,442L1017.237,433C1033.74,424,1066.745,406,1087.414,397C1108.083,388,1116.417,388,1126.41,386.045C1136.403,384.091,1148.055,380.181,1153.881,378.227L1159.708,376.272" id="L_REV_FA_0" class="edge-thickness-normal edge-pattern-solid edge-thickness-normal edge-pattern-solid flowchart-link" style=";" data-edge="true" data-et="edge" data-id="L_REV_FA_0" data-points="W3sieCI6MTAwMC43MzQzNzUsInkiOjQ0Mn0seyJ4IjoxMDk5Ljc1LCJ5IjozODh9LHsieCI6MTEyNC43NSwieSI6Mzg4fSx7IngiOjExNjMuNSwieSI6Mzc1fV0=" marker-end="url(#my-svg_flowchart-v2-pointEnd)"/><path d="M974.407,554L995.297,529.667C1016.188,505.333,1057.969,456.667,1083.026,432.333C1108.083,408,1116.417,408,1131.819,402.781C1147.221,397.562,1169.693,387.123,1180.928,381.904L1192.164,376.685" id="L_RCF_FA_0" class="edge-thickness-normal edge-pattern-solid edge-thickness-normal edge-pattern-solid flowchart-link" style=";" data-edge="true" data-et="edge" data-id="L_RCF_FA_0" data-points="W3sieCI6OTc0LjQwNjUyMDk1Mzc1NzIsInkiOjU1NH0seyJ4IjoxMDk5Ljc1LCJ5Ijo0MDh9LHsieCI6MTEyNC43NSwieSI6NDA4fSx7IngiOjExOTUuNzkxNjY2NjY2NjY2NywieSI6Mzc1fV0=" marker-end="url(#my-svg_flowchart-v2-pointEnd)"/><path d="M963.837,719L986.489,670.5C1009.141,622,1054.446,525,1081.265,476.5C1108.083,428,1116.417,428,1134.892,419.507C1153.368,411.014,1181.986,394.028,1196.295,385.535L1210.604,377.042" id="L_RPR_FA_0" class="edge-thickness-normal edge-pattern-solid edge-thickness-normal edge-pattern-solid flowchart-link" style=";" data-edge="true" data-et="edge" data-id="L_RPR_FA_0" data-points="W3sieCI6OTYzLjgzNzA0MzA0MjQ1MjgsInkiOjcxOX0seyJ4IjoxMDk5Ljc1LCJ5Ijo0Mjh9LHsieCI6MTEyNC43NSwieSI6NDI4fSx7IngiOjEyMTQuMDQzNDc4MjYwODY5NSwieSI6Mzc1fV0=" marker-end="url(#my-svg_flowchart-v2-pointEnd)"/><path d="M1409.75,958L1413.917,958C1418.083,958,1426.417,958,1451.417,958C1476.417,958,1518.083,958,1559.75,958C1601.417,958,1643.083,958,1667.788,958.25C1692.492,958.5,1700.235,958.999,1704.106,959.249L1707.977,959.499" id="L_FW_SW_0" class="edge-thickness-normal edge-pattern-solid edge-thickness-normal edge-pattern-solid flowchart-link" style=";" data-edge="true" data-et="edge" data-id="L_FW_SW_0" data-points="W3sieCI6MTQwOS43NSwieSI6OTU4fSx7IngiOjE0MzQuNzUsInkiOjk1OH0seyJ4IjoxNTU5Ljc1LCJ5Ijo5NTh9LHsieCI6MTY4NC43NSwieSI6OTU4fSx7IngiOjE3MTEuOTY4NzUsInkiOjk1OS43NTYwNDgzODcwOTY4fV0=" marker-end="url(#my-svg_flowchart-v2-pointEnd)"/><path d="M1967.531,968L1972.068,968C1976.604,968,1985.677,968,1994.38,968C2003.083,968,2011.417,968,2021.434,971.336C2031.452,974.673,2043.155,981.346,2049.006,984.682L2054.857,988.019" id="L_SW_SE_0" class="edge-thickness-normal edge-pattern-solid edge-thickness-normal edge-pattern-solid flowchart-link" style=";" data-edge="true" data-et="edge" data-id="L_SW_SE_0" data-points="W3sieCI6MTk2Ny41MzEyNSwieSI6OTY4fSx7IngiOjE5OTQuNzUsInkiOjk2OH0seyJ4IjoyMDE5Ljc1LCJ5Ijo5Njh9LHsieCI6MjA1OC4zMzE3MTEwNjU1NzQsInkiOjk5MH1d" marker-end="url(#my-svg_flowchart-v2-pointEnd)"/><path d="M217.703,668L221.87,668C226.036,668,234.37,668,242.036,668C249.703,668,256.703,668,260.203,668L263.703,668" id="L_CI_PYT_0" class="edge-thickness-normal edge-pattern-solid edge-thickness-normal edge-pattern-solid flowchart-link" style=";" data-edge="true" data-et="edge" data-id="L_CI_PYT_0" data-points="W3sieCI6MjE3LjcwMzEyNSwieSI6NjY4fSx7IngiOjI0Mi43MDMxMjUsInkiOjY2OH0seyJ4IjoyNjcuNzAzMTI1LCJ5Ijo2Njh9XQ==" marker-end="url(#my-svg_flowchart-v2-pointEnd)"/><path d="M428.08,246L448.851,219.333C469.621,192.667,511.162,139.333,552.766,112.667C594.37,86,636.036,86,677.703,86C719.37,86,761.036,86,799.247,97.466C837.458,108.932,872.213,131.865,889.591,143.331L906.968,154.797" id="L_ST_RFW_0" class="edge-thickness-normal edge-pattern-solid edge-thickness-normal edge-pattern-solid flowchart-link" style=";" data-edge="true" data-et="edge" data-id="L_ST_RFW_0" data-points="W3sieCI6NDI4LjA4MDAwOTQyMjExMDU1LCJ5IjoyNDZ9LHsieCI6NTUyLjcwMzEyNSwieSI6ODZ9LHsieCI6Njc3LjcwMzEyNSwieSI6ODZ9LHsieCI6ODAyLjcwMzEyNSwieSI6ODZ9LHsieCI6OTEwLjMwNjgzOTkyMzQ2OTQsInkiOjE1N31d" marker-end="url(#my-svg_flowchart-v2-pointEnd)"/><path d="M443.154,246L461.412,230.333C479.671,214.667,516.187,183.333,555.278,193.167C594.37,203,636.036,254,677.703,279.5C719.37,305,761.036,305,785.381,305.662C809.726,306.324,816.749,307.648,820.261,308.31L823.772,308.972" id="L_ST_RST_0" class="edge-thickness-normal edge-pattern-solid edge-thickness-normal edge-pattern-solid flowchart-link" style=";" data-edge="true" data-et="edge" data-id="L_ST_RST_0" data-points="W3sieCI6NDQzLjE1NDI1MjgxOTU0ODksInkiOjI0Nn0seyJ4Ijo1NTIuNzAzMTI1LCJ5IjoxNTJ9LHsieCI6Njc3LjcwMzEyNSwieSI6MzA1fSx7IngiOjgwMi43MDMxMjUsInkiOjMwNX0seyJ4Ijo4MjcuNzAzMTI1LCJ5IjozMDkuNzEzMDYwODU5NTAyNH1d" marker-end="url(#my-svg_flowchart-v2-pointEnd)"/><path d="M485.547,247.029L496.74,242.191C507.932,237.353,530.318,227.676,562.344,256.005C594.37,284.333,636.036,350.667,677.703,383.833C719.37,417,761.036,417,793.141,420.946C825.247,424.893,847.79,432.785,859.062,436.732L870.333,440.678" id="L_ST_REV_0" class="edge-thickness-normal edge-pattern-solid edge-thickness-normal edge-pattern-solid flowchart-link" style=";" data-edge="true" data-et="edge" data-id="L_ST_REV_0" data-points="W3sieCI6NDg1LjU0Njg3NSwieSI6MjQ3LjAyODgzMDY0NTE2MTN9LHsieCI6NTUyLjcwMzEyNSwieSI6MjE4fSx7IngiOjY3Ny43MDMxMjUsInkiOjQxN30seyJ4Ijo4MDIuNzAzMTI1LCJ5Ijo0MTd9LHsieCI6ODc0LjEwODYyMzc5ODA3NjksInkiOjQ0Mn1d" marker-end="url(#my-svg_flowchart-v2-pointEnd)"/><path d="M485.547,290.667L496.74,291.389C507.932,292.112,530.318,293.556,562.344,341.945C594.37,390.333,636.036,485.667,677.703,533.333C719.37,581,761.036,581,787.805,581C814.573,581,826.443,581,832.378,581L838.313,581" id="L_ST_RCF_0" class="edge-thickness-normal edge-pattern-solid edge-thickness-normal edge-pattern-solid flowchart-link" style=";" data-edge="true" data-et="edge" data-id="L_ST_RCF_0" data-points="W3sieCI6NDg1LjU0Njg3NSwieSI6MjkwLjY2NzMzODcwOTY3NzQ0fSx7IngiOjU1Mi43MDMxMjUsInkiOjI5NX0seyJ4Ijo2NzcuNzAzMTI1LCJ5Ijo1ODF9LHsieCI6ODAyLjcwMzEyNSwieSI6NTgxfSx7IngiOjg0Mi4zMTI1LCJ5Ijo1ODF9XQ==" marker-end="url(#my-svg_flowchart-v2-pointEnd)"/><path d="M477.243,324L489.819,330.167C502.396,336.333,527.55,348.667,560.96,410.167C594.37,471.667,636.036,582.333,677.703,637.667C719.37,693,761.036,693,793.385,697.109C825.734,701.219,848.765,709.437,860.281,713.546L871.796,717.656" id="L_ST_RPR_0" class="edge-thickness-normal edge-pattern-solid edge-thickness-normal edge-pattern-solid flowchart-link" style=";" data-edge="true" data-et="edge" data-id="L_ST_RPR_0" data-points="W3sieCI6NDc3LjI0MjU5ODY4NDIxMDUsInkiOjMyNH0seyJ4Ijo1NTIuNzAzMTI1LCJ5IjozNjF9LHsieCI6Njc3LjcwMzEyNSwieSI6NjkzfSx7IngiOjgwMi43MDMxMjUsInkiOjY5M30seyJ4Ijo4NzUuNTYzNjc5MjQ1MjgzLCJ5Ijo3MTl9XQ==" marker-end="url(#my-svg_flowchart-v2-pointEnd)"/><path d="M988.017,496L1006.639,509.667C1025.261,523.333,1062.506,550.667,1085.294,564.333C1108.083,578,1116.417,578,1142.698,632.216C1168.979,686.432,1213.208,794.864,1235.322,849.08L1257.437,903.296" id="L_REV_FW_0" class="edge-thickness-normal edge-pattern-solid edge-thickness-normal edge-pattern-solid flowchart-link" style=";" data-edge="true" data-et="edge" data-id="L_REV_FW_0" data-points="W3sieCI6OTg4LjAxNjc3MTc4ODk5MDgsInkiOjQ5Nn0seyJ4IjoxMDk5Ljc1LCJ5Ijo1Nzh9LHsieCI6MTEyNC43NSwieSI6NTc4fSx7IngiOjEyNTguOTQ3MzY4NDIxMDUyNywieSI6OTA3fV0=" marker-end="url(#my-svg_flowchart-v2-pointEnd)"/><path d="M1044.485,496L1053.696,498.667C1062.907,501.333,1081.328,506.667,1094.706,509.333C1108.083,512,1116.417,512,1146.417,512C1176.417,512,1228.083,512,1279.75,512C1331.417,512,1383.083,512,1429.75,615.167C1476.417,718.333,1518.083,924.667,1559.75,1027.833C1601.417,1131,1643.083,1131,1681.208,1112.816C1719.332,1094.633,1753.914,1058.266,1771.206,1040.082L1788.497,1021.899" id="L_REV_SW_0" class="edge-thickness-normal edge-pattern-solid edge-thickness-normal edge-pattern-solid flowchart-link" style=";" data-edge="true" data-et="edge" data-id="L_REV_SW_0" data-points="W3sieCI6MTA0NC40ODU0NjUxMTYyNzksInkiOjQ5Nn0seyJ4IjoxMDk5Ljc1LCJ5Ijo1MTJ9LHsieCI6MTEyNC43NSwieSI6NTEyfSx7IngiOjEyNzkuNzUsInkiOjUxMn0seyJ4IjoxNDM0Ljc1LCJ5Ijo1MTJ9LHsieCI6MTU1OS43NSwieSI6MTEzMX0seyJ4IjoxNjg0Ljc1LCJ5IjoxMTMxfSx7IngiOjE3OTEuMjUzMDY3NDg0NjYyNiwieSI6MTAxOX1d" marker-end="url(#my-svg_flowchart-v2-pointEnd)"/><path d="M996.284,496L1013.529,506.333C1030.773,516.667,1065.261,537.333,1086.672,547.667C1108.083,558,1116.417,558,1146.417,558C1176.417,558,1228.083,558,1279.75,558C1331.417,558,1383.083,558,1429.75,662.333C1476.417,766.667,1518.083,975.333,1559.75,1079.667C1601.417,1184,1643.083,1184,1689.75,1184C1736.417,1184,1788.083,1184,1839.75,1184C1891.417,1184,1943.083,1184,1973.083,1184C2003.083,1184,2011.417,1184,2028.548,1165.215C2045.679,1146.431,2071.609,1108.861,2084.573,1090.077L2097.538,1071.292" id="L_REV_SE_0" class="edge-thickness-normal edge-pattern-solid edge-thickness-normal edge-pattern-solid flowchart-link" style=";" data-edge="true" data-et="edge" data-id="L_REV_SE_0" data-points="W3sieCI6OTk2LjI4NDIzNDU1MDU2MTgsInkiOjQ5Nn0seyJ4IjoxMDk5Ljc1LCJ5Ijo1NTh9LHsieCI6MTEyNC43NSwieSI6NTU4fSx7IngiOjEyNzkuNzUsInkiOjU1OH0seyJ4IjoxNDM0Ljc1LCJ5Ijo1NTh9LHsieCI6MTU1OS43NSwieSI6MTE4NH0seyJ4IjoxNjg0Ljc1LCJ5IjoxMTg0fSx7IngiOjE4MzkuNzUsInkiOjExODR9LHsieCI6MTk5NC43NSwieSI6MTE4NH0seyJ4IjoyMDE5Ljc1LCJ5IjoxMTg0fSx7IngiOjIwOTkuODA5ODc5MDMyMjU4LCJ5IjoxMDY4fV0=" marker-end="url(#my-svg_flowchart-v2-pointEnd)"/><path d="M1026.889,608L1039.033,612.333C1051.176,616.667,1075.463,625.333,1091.773,629.667C1108.083,634,1116.417,634,1143.442,704.199C1170.468,774.399,1216.186,914.798,1239.045,984.997L1261.904,1055.197" id="L_RCF_CE_0" class="edge-thickness-normal edge-pattern-solid edge-thickness-normal edge-pattern-solid flowchart-link" style=";" data-edge="true" data-et="edge" data-id="L_RCF_CE_0" data-points="W3sieCI6MTAyNi44ODk0NDU3NTQ3MTcsInkiOjYwOH0seyJ4IjoxMDk5Ljc1LCJ5Ijo2MzR9LHsieCI6MTEyNC43NSwieSI6NjM0fSx7IngiOjEyNjMuMTQyODU3MTQyODU3LCJ5IjoxMDU5fV0=" marker-end="url(#my-svg_flowchart-v2-pointEnd)"/><path d="M1053.148,769.332L1060.915,771.11C1068.682,772.888,1084.216,776.444,1096.15,778.222C1108.083,780,1116.417,780,1144.064,851.2C1171.712,922.4,1218.674,1064.801,1242.155,1136.001L1265.636,1207.201" id="L_RPR_PE_0" class="edge-thickness-normal edge-pattern-solid edge-thickness-normal edge-pattern-solid flowchart-link" style=";" data-edge="true" data-et="edge" data-id="L_RPR_PE_0" data-points="W3sieCI6MTA1My4xNDg0Mzc1LCJ5Ijo3NjkuMzMxOTY1NzA0MDY2MX0seyJ4IjoxMDk5Ljc1LCJ5Ijo3ODB9LHsieCI6MTEyNC43NSwieSI6NzgwfSx7IngiOjEyNjYuODg4Mjk3ODcyMzQwNCwieSI6MTIxMX1d" marker-end="url(#my-svg_flowchart-v2-pointEnd)"/><path d="M1314.491,297L1334.534,274.5C1354.578,252,1394.664,207,1435.54,184.5C1476.417,162,1518.083,162,1559.75,162C1601.417,162,1643.083,162,1667.417,162C1691.75,162,1698.75,162,1702.25,162L1705.75,162" id="L_FA_YAML_0" class="edge-thickness-normal edge-pattern-solid edge-thickness-normal edge-pattern-solid flowchart-link" style=";" data-edge="true" data-et="edge" data-id="L_FA_YAML_0" data-points="W3sieCI6MTMxNC40OTEzNzkzMTAzNDQ5LCJ5IjoyOTd9LHsieCI6MTQzNC43NSwieSI6MTYyfSx7IngiOjE1NTkuNzUsInkiOjE2Mn0seyJ4IjoxNjg0Ljc1LCJ5IjoxNjJ9LHsieCI6MTcwOS43NSwieSI6MTYyfV0=" marker-end="url(#my-svg_flowchart-v2-pointEnd)"/><path d="M1400.063,328.238L1405.844,327.865C1411.625,327.492,1423.188,326.746,1449.802,326.373C1476.417,326,1518.083,326,1559.75,326C1601.417,326,1643.083,326,1667.417,326C1691.75,326,1698.75,326,1702.25,326L1705.75,326" id="L_FA_DB_0" class="edge-thickness-normal edge-pattern-solid edge-thickness-normal edge-pattern-solid flowchart-link" style=";" data-edge="true" data-et="edge" data-id="L_FA_DB_0" data-points="W3sieCI6MTQwMC4wNjI1LCJ5IjozMjguMjM3OTAzMjI1ODA2NDZ9LHsieCI6MTQzNC43NSwieSI6MzI2fSx7IngiOjE1NTkuNzUsInkiOjMyNn0seyJ4IjoxNjg0Ljc1LCJ5IjozMjZ9LHsieCI6MTcwOS43NSwieSI6MzI2fV0=" marker-end="url(#my-svg_flowchart-v2-pointEnd)"/><path d="M1330.979,375L1348.274,388.167C1365.569,401.333,1400.16,427.667,1438.288,440.833C1476.417,454,1518.083,454,1559.75,454C1601.417,454,1643.083,454,1670.529,454C1697.974,454,1711.198,454,1717.81,454L1724.422,454" id="L_FA_LOG_0" class="edge-thickness-normal edge-pattern-dotted edge-thickness-normal edge-pattern-solid flowchart-link" style=";" data-edge="true" data-et="edge" data-id="L_FA_LOG_0" data-points="W3sieCI6MTMzMC45Nzg4MTM1NTkzMjIxLCJ5IjozNzV9LHsieCI6MTQzNC43NSwieSI6NDU0fSx7IngiOjE1NTkuNzUsInkiOjQ1NH0seyJ4IjoxNjg0Ljc1LCJ5Ijo0NTR9LHsieCI6MTcyOC40MjE4NzUsInkiOjQ1NH1d" marker-end="url(#my-svg_flowchart-v2-pointEnd)"/><path d="M442.364,617L460.754,596C479.144,575,515.923,533,555.147,471.667C594.37,410.333,636.036,329.667,677.703,289.333C719.37,249,761.036,249,795.731,242.934C830.425,236.868,858.146,224.736,872.007,218.67L885.868,212.604" id="L_PYT_RFW_0" class="edge-thickness-normal edge-pattern-dotted edge-thickness-normal edge-pattern-solid flowchart-link" style=";" data-edge="true" data-et="edge" data-id="L_PYT_RFW_0" data-points="W3sieCI6NDQyLjM2NDE0MTk0OTE1MjU1LCJ5Ijo2MTd9LHsieCI6NTUyLjcwMzEyNSwieSI6NDkxfSx7IngiOjY3Ny43MDMxMjUsInkiOjI0OX0seyJ4Ijo4MDIuNzAzMTI1LCJ5IjoyNDl9LHsieCI6ODg5LjUzMjIxMTUzODQ2MTUsInkiOjIxMX1d" marker-end="url(#my-svg_flowchart-v2-pointEnd)"/><path d="M468.919,617L482.883,607C496.847,597,524.775,577,559.572,534.333C594.37,491.667,636.036,426.333,677.703,393.667C719.37,361,761.036,361,785.381,360.338C809.726,359.676,816.749,358.352,820.261,357.69L823.772,357.028" id="L_PYT_RST_0" class="edge-thickness-normal edge-pattern-dotted edge-thickness-normal edge-pattern-solid flowchart-link" style=";" data-edge="true" data-et="edge" data-id="L_PYT_RST_0" data-points="W3sieCI6NDY4LjkxOTM0MTIxNjIxNjIsInkiOjYxN30seyJ4Ijo1NTIuNzAzMTI1LCJ5Ijo1NTd9LHsieCI6Njc3LjcwMzEyNSwieSI6MzYxfSx7IngiOjgwMi43MDMxMjUsInkiOjM2MX0seyJ4Ijo4MjcuNzAzMTI1LCJ5IjozNTYuMjg2OTM5MTQwNDk3Nn1d" marker-end="url(#my-svg_flowchart-v2-pointEnd)"/><path d="M527.703,651.226L531.87,650.688C536.036,650.151,544.37,649.075,569.37,628.038C594.37,607,636.036,566,677.703,545.5C719.37,525,761.036,525,794.065,520.402C827.094,515.804,851.484,506.607,863.679,502.009L875.874,497.411" id="L_PYT_REV_0" class="edge-thickness-normal edge-pattern-dotted edge-thickness-normal edge-pattern-solid flowchart-link" style=";" data-edge="true" data-et="edge" data-id="L_PYT_REV_0" data-points="W3sieCI6NTI3LjcwMzEyNSwieSI6NjUxLjIyNTgwNjQ1MTYxMjl9LHsieCI6NTUyLjcwMzEyNSwieSI6NjQ4fSx7IngiOjY3Ny43MDMxMjUsInkiOjUyNX0seyJ4Ijo4MDIuNzAzMTI1LCJ5Ijo1MjV9LHsieCI6ODc5LjYxNzA0Nzk5MTA3MTQsInkiOjQ5Nn1d" marker-end="url(#my-svg_flowchart-v2-pointEnd)"/><path d="M527.703,706.581L531.87,707.817C536.036,709.054,544.37,711.527,569.37,699.93C594.37,688.333,636.036,662.667,677.703,649.833C719.37,637,761.036,637,794.065,632.402C827.094,627.804,851.484,618.607,863.679,614.009L875.874,609.411" id="L_PYT_RCF_0" class="edge-thickness-normal edge-pattern-dotted edge-thickness-normal edge-pattern-solid flowchart-link" style=";" data-edge="true" data-et="edge" data-id="L_PYT_RCF_0" data-points="W3sieCI6NTI3LjcwMzEyNSwieSI6NzA2LjU4MDY0NTE2MTI5MDR9LHsieCI6NTUyLjcwMzEyNSwieSI6NzE0fSx7IngiOjY3Ny43MDMxMjUsInkiOjYzN30seyJ4Ijo4MDIuNzAzMTI1LCJ5Ijo2Mzd9LHsieCI6ODc5LjYxNzA0Nzk5MTA3MTQsInkiOjYwOH1d" marker-end="url(#my-svg_flowchart-v2-pointEnd)"/><path d="M468.283,719L482.353,729.167C496.423,739.333,524.563,759.667,559.467,769.833C594.37,780,636.036,780,677.703,780C719.37,780,761.036,780,788.987,778.371C816.937,776.742,831.171,773.483,838.288,771.854L845.406,770.225" id="L_PYT_RPR_0" class="edge-thickness-normal edge-pattern-dotted edge-thickness-normal edge-pattern-solid flowchart-link" style=";" data-edge="true" data-et="edge" data-id="L_PYT_RPR_0" data-points="W3sieCI6NDY4LjI4MzQ4MjE0Mjg1NzEsInkiOjcxOX0seyJ4Ijo1NTIuNzAzMTI1LCJ5Ijo3ODB9LHsieCI6Njc3LjcwMzEyNSwieSI6NzgwfSx7IngiOjgwMi43MDMxMjUsInkiOjc4MH0seyJ4Ijo4NDkuMzA0Njg3NSwieSI6NzY5LjMzMTk2NTcwNDA2NjF9XQ==" marker-end="url(#my-svg_flowchart-v2-pointEnd)"/></g><g class="edgeLabels"><g class="edgeLabel"><g class="label" data-id="L_USER_ST_0" transform="translate(0, 0)"><foreignObject width="0" height="0"><div xmlns="http://www.w3.org/1999/xhtml" class="labelBkg" style="display: table-cell; white-space: nowrap; line-height: 1.5; max-width: 200px; text-align: center;"><span class="edgeLabel"></span></div></foreignObject></g></g><g class="edgeLabel"><g class="label" data-id="L_RFW_FA_0" transform="translate(0, 0)"><foreignObject width="0" height="0"><div xmlns="http://www.w3.org/1999/xhtml" class="labelBkg" style="display: table-cell; white-space: nowrap; line-height: 1.5; max-width: 200px; text-align: center;"><span class="edgeLabel"></span></div></foreignObject></g></g><g class="edgeLabel"><g class="label" data-id="L_RST_FA_0" transform="translate(0, 0)"><foreignObject width="0" height="0"><div xmlns="http://www.w3.org/1999/xhtml" class="labelBkg" style="display: table-cell; white-space: nowrap; line-height: 1.5; max-width: 200px; text-align: center;"><span class="edgeLabel"></span></div></foreignObject></g></g><g class="edgeLabel"><g class="label" data-id="L_REV_FA_0" transform="translate(0, 0)"><foreignObject width="0" height="0"><div xmlns="http://www.w3.org/1999/xhtml" class="labelBkg" style="display: table-cell; white-space: nowrap; line-height: 1.5; max-width: 200px; text-align: center;"><span class="edgeLabel"></span></div></foreignObject></g></g><g class="edgeLabel"><g class="label" data-id="L_RCF_FA_0" transform="translate(0, 0)"><foreignObject width="0" height="0"><div xmlns="http://www.w3.org/1999/xhtml" class="labelBkg" style="display: table-cell; white-space: nowrap; line-height: 1.5; max-width: 200px; text-align: center;"><span class="edgeLabel"></span></div></foreignObject></g></g><g class="edgeLabel"><g class="label" data-id="L_RPR_FA_0" transform="translate(0, 0)"><foreignObject width="0" height="0"><div xmlns="http://www.w3.org/1999/xhtml" class="labelBkg" style="display: table-cell; white-space: nowrap; line-height: 1.5; max-width: 200px; text-align: center;"><span class="edgeLabel"></span></div></foreignObject></g></g><g class="edgeLabel"><g class="label" data-id="L_FW_SW_0" transform="translate(0, 0)"><foreignObject width="0" height="0"><div xmlns="http://www.w3.org/1999/xhtml" class="labelBkg" style="display: table-cell; white-space: nowrap; line-height: 1.5; max-width: 200px; text-align: center;"><span class="edgeLabel"></span></div></foreignObject></g></g><g class="edgeLabel"><g class="label" data-id="L_SW_SE_0" transform="translate(0, 0)"><foreignObject width="0" height="0"><div xmlns="http://www.w3.org/1999/xhtml" class="labelBkg" style="display: table-cell; white-space: nowrap; line-height: 1.5; max-width: 200px; text-align: center;"><span class="edgeLabel"></span></div></foreignObject></g></g><g class="edgeLabel"><g class="label" data-id="L_CI_PYT_0" transform="translate(0, 0)"><foreignObject width="0" height="0"><div xmlns="http://www.w3.org/1999/xhtml" class="labelBkg" style="display: table-cell; white-space: nowrap; line-height: 1.5; max-width: 200px; text-align: center;"><span class="edgeLabel"></span></div></foreignObject></g></g><g class="edgeLabel" transform="translate(677.703125, 86)"><g class="label" data-id="L_ST_RFW_0" transform="translate(-77.84375, -12)"><foreignObject width="155.6875" height="24"><div xmlns="http://www.w3.org/1999/xhtml" class="labelBkg" style="display: table-cell; white-space: nowrap; line-height: 1.5; max-width: 200px; text-align: center;"><span class="edgeLabel"><p>GET /api/frameworks</p></span></div></foreignObject></g></g><g class="edgeLabel" transform="translate(677.703125, 305)"><g class="label" data-id="L_ST_RST_0" transform="translate(-81.140625, -12)"><foreignObject width="162.28125" height="24"><div xmlns="http://www.w3.org/1999/xhtml" class="labelBkg" style="display: table-cell; white-space: nowrap; line-height: 1.5; max-width: 200px; text-align: center;"><span class="edgeLabel"><p>GET /api/stakeholders</p></span></div></foreignObject></g></g><g class="edgeLabel" transform="translate(677.703125, 417)"><g class="label" data-id="L_ST_REV_0" transform="translate(-70.8984375, -12)"><foreignObject width="141.796875" height="24"><div xmlns="http://www.w3.org/1999/xhtml" class="labelBkg" style="display: table-cell; white-space: nowrap; line-height: 1.5; max-width: 200px; text-align: center;"><span class="edgeLabel"><p>POST /api/evaluate</p></span></div></foreignObject></g></g><g class="edgeLabel" transform="translate(677.703125, 581)"><g class="label" data-id="L_ST_RCF_0" transform="translate(-70.5390625, -12)"><foreignObject width="141.078125" height="24"><div xmlns="http://www.w3.org/1999/xhtml" class="labelBkg" style="display: table-cell; white-space: nowrap; line-height: 1.5; max-width: 200px; text-align: center;"><span class="edgeLabel"><p>POST /api/conflicts</p></span></div></foreignObject></g></g><g class="edgeLabel" transform="translate(677.703125, 693)"><g class="label" data-id="L_ST_RPR_0" transform="translate(-63.5390625, -12)"><foreignObject width="127.078125" height="24"><div xmlns="http://www.w3.org/1999/xhtml" class="labelBkg" style="display: table-cell; white-space: nowrap; line-height: 1.5; max-width: 200px; text-align: center;"><span class="edgeLabel"><p>POST /api/pareto</p></span></div></foreignObject></g></g><g class="edgeLabel"><g class="label" data-id="L_REV_FW_0" transform="translate(0, 0)"><foreignObject width="0" height="0"><div xmlns="http://www.w3.org/1999/xhtml" class="labelBkg" style="display: table-cell; white-space: nowrap; line-height: 1.5; max-width: 200px; text-align: center;"><span class="edgeLabel"></span></div></foreignObject></g></g><g class="edgeLabel"><g class="label" data-id="L_REV_SW_0" transform="translate(0, 0)"><foreignObject width="0" height="0"><div xmlns="http://www.w3.org/1999/xhtml" class="labelBkg" style="display: table-cell; white-space: nowrap; line-height: 1.5; max-width: 200px; text-align: center;"><span class="edgeLabel"></span></div></foreignObject></g></g><g class="edgeLabel"><g class="label" data-id="L_REV_SE_0" transform="translate(0, 0)"><foreignObject width="0" height="0"><div xmlns="http://www.w3.org/1999/xhtml" class="labelBkg" style="display: table-cell; white-space: nowrap; line-height: 1.5; max-width: 200px; text-align: center;"><span class="edgeLabel"></span></div></foreignObject></g></g><g class="edgeLabel"><g class="label" data-id="L_RCF_CE_0" transform="translate(0, 0)"><foreignObject width="0" height="0"><div xmlns="http://www.w3.org/1999/xhtml" class="labelBkg" style="display: table-cell; white-space: nowrap; line-height: 1.5; max-width: 200px; text-align: center;"><span class="edgeLabel"></span></div></foreignObject></g></g><g class="edgeLabel"><g class="label" data-id="L_RPR_PE_0" transform="translate(0, 0)"><foreignObject width="0" height="0"><div xmlns="http://www.w3.org/1999/xhtml" class="labelBkg" style="display: table-cell; white-space: nowrap; line-height: 1.5; max-width: 200px; text-align: center;"><span class="edgeLabel"></span></div></foreignObject></g></g><g class="edgeLabel" transform="translate(1559.75, 162)"><g class="label" data-id="L_FA_YAML_0" transform="translate(-89.484375, -12)"><foreignObject width="178.96875" height="24"><div xmlns="http://www.w3.org/1999/xhtml" class="labelBkg" style="display: table-cell; white-space: nowrap; line-height: 1.5; max-width: 200px; text-align: center;"><span class="edgeLabel"><p>load at startup / registry</p></span></div></foreignObject></g></g><g class="edgeLabel" transform="translate(1559.75, 326)"><g class="label" data-id="L_FA_DB_0" transform="translate(-100, -24)"><foreignObject width="200" height="48"><div xmlns="http://www.w3.org/1999/xhtml" class="labelBkg" style="display: table; white-space: break-spaces; line-height: 1.5; max-width: 200px; text-align: center; width: 200px;"><span class="edgeLabel"><p>read stakeholder weights / profiles</p></span></div></foreignObject></g></g><g class="edgeLabel" transform="translate(1559.75, 454)"><g class="label" data-id="L_FA_LOG_0" transform="translate(-50.8515625, -12)"><foreignObject width="101.703125" height="24"><div xmlns="http://www.w3.org/1999/xhtml" class="labelBkg" style="display: table-cell; white-space: nowrap; line-height: 1.5; max-width: 200px; text-align: center;"><span class="edgeLabel"><p>JSONL records</p></span></div></foreignObject></g></g><g class="edgeLabel" transform="translate(677.703125, 249)"><g class="label" data-id="L_PYT_RFW_0" transform="translate(-100, -24)"><foreignObject width="200" height="48"><div xmlns="http://www.w3.org/1999/xhtml" class="labelBkg" style="display: table; white-space: break-spaces; line-height: 1.5; max-width: 200px; text-align: center; width: 200px;"><span class="edgeLabel"><p>TestClient / endpoint assertions</p></span></div></foreignObject></g></g><g class="edgeLabel" transform="translate(677.703125, 361)"><g class="label" data-id="L_PYT_RST_0" transform="translate(-100, -24)"><foreignObject width="200" height="48"><div xmlns="http://www.w3.org/1999/xhtml" class="labelBkg" style="display: table; white-space: break-spaces; line-height: 1.5; max-width: 200px; text-align: center; width: 200px;"><span class="edgeLabel"><p>TestClient / endpoint assertions</p></span></div></foreignObject></g></g><g class="edgeLabel" transform="translate(677.703125, 525)"><g class="label" data-id="L_PYT_REV_0" transform="translate(-100, -24)"><foreignObject width="200" height="48"><div xmlns="http://www.w3.org/1999/xhtml" class="labelBkg" style="display: table; white-space: break-spaces; line-height: 1.5; max-width: 200px; text-align: center; width: 200px;"><span class="edgeLabel"><p>TestClient / endpoint assertions</p></span></div></foreignObject></g></g><g class="edgeLabel" transform="translate(677.703125, 637)"><g class="label" data-id="L_PYT_RCF_0" transform="translate(-100, -24)"><foreignObject width="200" height="48"><div xmlns="http://www.w3.org/1999/xhtml" class="labelBkg" style="display: table; white-space: break-spaces; line-height: 1.5; max-width: 200px; text-align: center; width: 200px;"><span class="edgeLabel"><p>TestClient / endpoint assertions</p></span></div></foreignObject></g></g><g class="edgeLabel" transform="translate(677.703125, 780)"><g class="label" data-id="L_PYT_RPR_0" transform="translate(-100, -24)"><foreignObject width="200" height="48"><div xmlns="http://www.w3.org/1999/xhtml" class="labelBkg" style="display: table; white-space: break-spaces; line-height: 1.5; max-width: 200px; text-align: center; width: 200px;"><span class="edgeLabel"><p>TestClient / endpoint assertions</p></span></div></foreignObject></g></g></g><g class="nodes"><g class="node default" id="flowchart-USER-0" transform="translate(125.3515625, 285)"><rect class="basic label-container" style="" x="-88.1796875" y="-27" width="176.359375" height="54"/><g class="label" style="" transform="translate(-58.1796875, -12)"><rect/><foreignObject width="116.359375" height="24"><div xmlns="http://www.w3.org/1999/xhtml" style="display: table-cell; white-space: nowrap; line-height: 1.5; max-width: 200px; text-align: center;"><span class="nodeLabel"><p>User / Examiner</p></span></div></foreignObject></g></g><g class="node default" id="flowchart-ST-1" transform="translate(397.703125, 285)"><rect class="basic label-container" style="" x="-87.84375" y="-39" width="175.6875" height="78"/><g class="label" style="" transform="translate(-57.84375, -24)"><rect/><foreignObject width="115.6875" height="48"><div xmlns="http://www.w3.org/1999/xhtml" style="display: table-cell; white-space: nowrap; line-height: 1.5; max-width: 200px; text-align: center;"><span class="nodeLabel"><p>Streamlit UI<br />(localhost:8501)</p></span></div></foreignObject></g></g><g class="node default" id="flowchart-FA-4" transform="translate(1279.75, 336)"><rect class="basic label-container" style="" x="-120.3125" y="-39" width="240.625" height="78"/><g class="label" style="" transform="translate(-90.3125, -24)"><rect/><foreignObject width="180.625" height="48"><div xmlns="http://www.w3.org/1999/xhtml" style="display: table-cell; white-space: nowrap; line-height: 1.5; max-width: 200px; text-align: center;"><span class="nodeLabel"><p>FastAPI Backend<br />(Uvicorn, localhost:8000)</p></span></div></foreignObject></g></g><g class="node default" id="flowchart-RFW-5" transform="translate(951.2265625, 184)"><rect class="basic label-container" style="" x="-120.2265625" y="-27" width="240.453125" height="54"/><g class="label" style="" transform="translate(-90.2265625, -12)"><rect/><foreignObject width="180.453125" height="24"><div xmlns="http://www.w3.org/1999/xhtml" style="display: table-cell; white-space: nowrap; line-height: 1.5; max-width: 200px; text-align: center;"><span class="nodeLabel"><p>Router: /api/frameworks</p></span></div></foreignObject></g></g><g class="node default" id="flowchart-RST-6" transform="translate(951.2265625, 333)"><rect class="basic label-container" style="" x="-123.5234375" y="-27" width="247.046875" height="54"/><g class="label" style="" transform="translate(-93.5234375, -12)"><rect/><foreignObject width="187.046875" height="24"><div xmlns="http://www.w3.org/1999/xhtml" style="display: table-cell; white-space: nowrap; line-height: 1.5; max-width: 200px; text-align: center;"><span class="nodeLabel"><p>Router: /api/stakeholders</p></span></div></foreignObject></g></g><g class="node default" id="flowchart-REV-7" transform="translate(951.2265625, 469)"><rect class="basic label-container" style="" x="-109.2734375" y="-27" width="218.546875" height="54"/><g class="label" style="" transform="translate(-79.2734375, -12)"><rect/><foreignObject width="158.546875" height="24"><div xmlns="http://www.w3.org/1999/xhtml" style="display: table-cell; white-space: nowrap; line-height: 1.5; max-width: 200px; text-align: center;"><span class="nodeLabel"><p>Router: /api/evaluate</p></span></div></foreignObject></g></g><g class="node default" id="flowchart-RCF-8" transform="translate(951.2265625, 581)"><rect class="basic label-container" style="" x="-108.9140625" y="-27" width="217.828125" height="54"/><g class="label" style="" transform="translate(-78.9140625, -12)"><rect/><foreignObject width="157.828125" height="24"><div xmlns="http://www.w3.org/1999/xhtml" style="display: table-cell; white-space: nowrap; line-height: 1.5; max-width: 200px; text-align: center;"><span class="nodeLabel"><p>Router: /api/conflicts</p></span></div></foreignObject></g></g><g class="node default" id="flowchart-RPR-9" transform="translate(951.2265625, 746)"><rect class="basic label-container" style="" x="-101.921875" y="-27" width="203.84375" height="54"/><g class="label" style="" transform="translate(-71.921875, -12)"><rect/><foreignObject width="143.84375" height="24"><div xmlns="http://www.w3.org/1999/xhtml" style="display: table-cell; white-space: nowrap; line-height: 1.5; max-width: 200px; text-align: center;"><span class="nodeLabel"><p>Router: /api/pareto</p></span></div></foreignObject></g></g><g class="node default" id="flowchart-FW-20" transform="translate(1279.75, 958)"><rect class="basic label-container" style="" x="-130" y="-51" width="260" height="102"/><g class="label" style="" transform="translate(-100, -36)"><rect/><foreignObject width="200" height="72"><div xmlns="http://www.w3.org/1999/xhtml" style="display: table; white-space: break-spaces; line-height: 1.5; max-width: 200px; text-align: center; width: 200px;"><span class="nodeLabel"><p>Framework Weighting<br />(section/coverage-derived prior wf)</p></span></div></foreignObject></g></g><g class="node default" id="flowchart-SW-21" transform="translate(1839.75, 968)"><rect class="basic label-container" style="" x="-127.78125" y="-51" width="255.5625" height="102"/><g class="label" style="" transform="translate(-97.78125, -36)"><rect/><foreignObject width="195.5625" height="72"><div xmlns="http://www.w3.org/1999/xhtml" style="display: table-cell; white-space: nowrap; line-height: 1.5; max-width: 200px; text-align: center;"><span class="nodeLabel"><p>Stakeholder Weighting (ws)<br />+ Product Pooling<br />(w_eff ∝ ws × wf)</p></span></div></foreignObject></g></g><g class="node default" id="flowchart-SE-22" transform="translate(2126.7265625, 1029)"><rect class="basic label-container" style="" x="-81.9765625" y="-39" width="163.953125" height="78"/><g class="label" style="" transform="translate(-51.9765625, -24)"><rect/><foreignObject width="103.953125" height="48"><div xmlns="http://www.w3.org/1999/xhtml" style="display: table-cell; white-space: nowrap; line-height: 1.5; max-width: 200px; text-align: center;"><span class="nodeLabel"><p>Scoring Engine<br />(TOPSIS, WSM)</p></span></div></foreignObject></g></g><g class="node default" id="flowchart-CE-23" transform="translate(1279.75, 1110)"><rect class="basic label-container" style="" x="-130" y="-51" width="260" height="102"/><g class="label" style="" transform="translate(-100, -36)"><rect/><foreignObject width="200" height="72"><div xmlns="http://www.w3.org/1999/xhtml" style="display: table; white-space: break-spaces; line-height: 1.5; max-width: 200px; text-align: center; width: 200px;"><span class="nodeLabel"><p>Conflict Engine<br />(weights-only, contribution-based, Spearman)</p></span></div></foreignObject></g></g><g class="node default" id="flowchart-PE-24" transform="translate(1279.75, 1250)"><rect class="basic label-container" style="" x="-120.15625" y="-39" width="240.3125" height="78"/><g class="label" style="" transform="translate(-90.15625, -24)"><rect/><foreignObject width="180.3125" height="48"><div xmlns="http://www.w3.org/1999/xhtml" style="display: table-cell; white-space: nowrap; line-height: 1.5; max-width: 200px; text-align: center;"><span class="nodeLabel"><p>Pareto Engine<br />(non-dominated frontier)</p></span></div></foreignObject></g></g><g class="node default" id="flowchart-YAML-29" transform="translate(1839.75, 162)"><rect class="basic label-container" style="" x="-130" y="-63" width="260" height="126"/><g class="label" style="" transform="translate(-100, -48)"><rect/><foreignObject width="200" height="96"><div xmlns="http://www.w3.org/1999/xhtml" style="display: table; white-space: break-spaces; line-height: 1.5; max-width: 200px; text-align: center; width: 200px;"><span class="nodeLabel"><p>Framework YAML Registry<br />(eu_altai.yaml, nist_ai_rmf.yaml, sg_mgaf.yaml)</p></span></div></foreignObject></g></g><g class="node default" id="flowchart-DB-30" transform="translate(1839.75, 326)"><rect class="basic label-container" style="" x="-130" y="-51" width="260" height="102"/><g class="label" style="" transform="translate(-100, -36)"><rect/><foreignObject width="200" height="72"><div xmlns="http://www.w3.org/1999/xhtml" style="display: table; white-space: break-spaces; line-height: 1.5; max-width: 200px; text-align: center; width: 200px;"><span class="nodeLabel"><p>SQLite DB (stakeholders, profiles)<br />(optional persistence)</p></span></div></foreignObject></g></g><g class="node default" id="flowchart-LOG-31" transform="translate(1839.75, 454)"><rect class="basic label-container" style="" x="-111.328125" y="-27" width="222.65625" height="54"/><g class="label" style="" transform="translate(-81.328125, -12)"><rect/><foreignObject width="162.65625" height="24"><div xmlns="http://www.w3.org/1999/xhtml" style="display: table-cell; white-space: nowrap; line-height: 1.5; max-width: 200px; text-align: center;"><span class="nodeLabel"><p>Audit / Logs (optional)</p></span></div></foreignObject></g></g><g class="node default" id="flowchart-PYT-32" transform="translate(397.703125, 668)"><rect class="basic label-container" style="" x="-130" y="-51" width="260" height="102"/><g class="label" style="" transform="translate(-100, -36)"><rect/><foreignObject width="200" height="72"><div xmlns="http://www.w3.org/1999/xhtml" style="display: table; white-space: break-spaces; line-height: 1.5; max-width: 200px; text-align: center; width: 200px;"><span class="nodeLabel"><p>Pytest E2E + Edge Case Suite<br />(31 tests)</p></span></div></foreignObject></g></g><g class="node default" id="flowchart-CI-33" transform="translate(125.3515625, 668)"><rect class="basic label-container" style="" x="-92.3515625" y="-27" width="184.703125" height="54"/><g class="label" style="" transform="translate(-62.3515625, -12)"><rect/><foreignObject width="124.703125" height="24"><div xmlns="http://www.w3.org/1999/xhtml" style="display: table-cell; white-space: nowrap; line-height: 1.5; max-width: 200px; text-align: center;"><span class="nodeLabel"><p>GitHub Actions CI</p></span></div></foreignObject></g></g></g></g></g></svg>