<svg id="my-svg" width="100%" xmlns="http://www.w3.org/2000/svg" xmlns:xlink="http://www.w3.org/1999/xlink" class="flowchart" style="max-width: 2254.66px; background-color: white;" viewBox="0 0 2254.65625 1200" role="graphics-document document" aria-roledescription="flowchart-v2"><style>#my-svg{font-family:"trebuchet ms",verdana,arial,sans-serif;font-size:16px;fill:#333;}@keyframes edge-animation-frame{from{stroke-dashoffset:0;}}@keyframes dash{to{stroke-dashoffset:0;}}#my-svg .edge-animation-slow{stroke-dasharray:9,5!important;stroke-dashoffset:900;animation:dash 50s linear infinite;stroke-linecap:round;}#my-svg .edge-animation-fast{stroke-dasharray:9,5!important;stroke-dashoffset:900;animation:dash 20s linear infinite;stroke-linecap:round;}#my-svg .error-icon{fill:#552222;}#my-svg .error-text{fill:#552222;stroke:#552222;}#my-svg .edge-thickness-normal{stroke-width:1px;}#my-svg .edge-thickness-thick{stroke-width:3.5px;}#my-svg .edge-pattern-solid{stroke-dasharray:0;}#my-svg .edge-thickness-invisible{stroke-width:0;fill:none;}#my-svg .edge-pattern-dashed{stroke-dasharray:3;}#my-svg .edge-pattern-dotted{stroke-dasharray:2;}#my-svg .marker{fill:#333333;stroke:#333333;}#my-svg .marker.cross{stroke:#333333;}#my-svg svg{font-family:"trebuchet ms",verdana,arial,sans-serif;font-size:16px;}#my-svg p{margin:0;}#my-svg .label{font-family:"trebuchet ms",verdana,arial,sans-serif;color:#333;}#my-svg .cluster-label text{fill:#333;}#my-svg .cluster-label span{color:#333;}#my-svg .cluster-label span p{background-color:transparent;}#my-svg .label text,#my-svg span{fill:#333;color:#333;}#my-svg .node rect,#my-svg .node circle,#my-svg .node ellipse,#my-svg .node polygon,#my-svg .node path{fill:#ECECFF;stroke:#9370DB;stroke-width:1px;}#my-svg .rough-node .label text,#my-svg .node .label text,#my-svg .image-shape .label,#my-svg .icon-shape .label{text-anchor:middle;}#my-svg .node .katex path{fill:#000;stroke:#000;stroke-width:1px;}#my-svg .rough-node .label,#my-svg .node .label,#my-svg .image-shape .label,#my-svg .icon-shape .label{text-align:center;}#my-svg .node.clickable{cursor:pointer;}#my-svg .root .anchor path{fill:#333333!important;stroke-width:0;stroke:#333333;}#my-svg .arrowheadPath{fill:#333333;}#my-svg .edgePath .path{stroke:#333333;stroke-width:2.0px;}#my-svg .flowchart-link{stroke:#333333;fill:none;}#my-svg .edgeLabel{background-color:rgba(232,232,232, 0.8);text-align:center;}#my-svg .edgeLabel p{background-color:rgba(232,232,232, 0.8);}#my-svg .edgeLabel rect{opacity:0.5;background-color:rgba(232,232,232, 0.8);fill:rgba(232,232,232, 0.8);}#my-svg .labelBkg{background-color:rgba(232, 232, 232, 0.5);}#my-svg .cluster rect{fill:#ffffde;stroke:#aaaa33;stroke-width:1px;}#my-svg .cluster text{fill:#333;}#my-svg .cluster span{color:#333;}#my-svg div.mermaidTooltip{position:absolute;text-align:center;max-width:200px;padding:2px;font-family:"trebuchet ms",verdana,arial,sans-serif;font-size:12px;background:hsl(80, 100%, 96.2745098039%);border:1px solid #aaaa33;border-radius:2px;pointer-events:none;z-index:100;}#my-svg .flowchartTitleText{text-anchor:middle;font-size:18px;fill:#333;}#my-svg rect.text{fill:none;stroke-width:0;}#my-svg .icon-shape,#my-svg .image-shape{background-color:rgba(232,232,232, 0.8);text-align:center;}#my-svg .icon-shape p,#my-svg .image-shape p{background-color:rgba(232,232,232, 0.8);padding:2px;}#my-svg .icon-shape rect,#my-svg .image-shape rect{opacity:0.5;background-color:rgba(232,232,232, 0.8);fill:rgba(232,232,232, 0.8);}#my-svg .label-icon{display:inline-block;height:1em;overflow:visible;vertical-align:-0.125em;}#my-svg .node .label-icon path{fill:currentColor;stroke:revert;stroke-width:revert;}#my-svg :root{--mermaid-font-family:"trebuchet ms",verdana,arial,sans-serif;}</style><g><marker id="my-svg_flowchart-v2-pointEnd" class="marker flowchart-v2" viewBox="0 0 10 10" refX="5" refY="5" markerUnits="userSpaceOnUse" markerWidth="8" markerHeight="8" orient="auto"><path d="M 0 0 L 10 5 L 0 10 z" class="arrowMarkerPath" style="stroke-width: 1; stroke-dasharray: 1, 0;"/></marker><marker id="my-svg_flowchart-v2-pointStart" class="marker flowchart-v2" viewBox="0 0 10 10" refX="4.5" refY="5" markerUnits="userSpaceOnUse" markerWidth="8" markerHeight="8" orient="auto"><path d="M 0 5 L 10 10 L 10 0 z" class="arrowMarkerPath" style="stroke-width: 1; stroke-dasharray: 1, 0;"/></marker><marker id="my-svg_flowchart-v2-circleEnd" class="marker flowchart-v2" viewBox="0 0 10 10" refX="11" refY="5" markerUnits="userSpaceOnUse" markerWidth="11" markerHeight="11" orient="auto"><circle cx="5" cy="5" r="5" class="arrowMarkerPath" style="stroke-width: 1; stroke-dasharray: 1, 0;"/></marker><marker id="my-svg_flowchart-v2-circleStart" class="marker flowchart-v2" viewBox="0 0 10 10" refX="-1" refY="5" markerUnits="userSpaceOnUse" markerWidth="11" markerHeight="11" orient="auto"><circle cx="5" cy="5" r="5" class="arrowMarkerPath" style="stroke-width: 1; stroke-dasharray: 1, 0;"/></marker><marker id="my-svg_flowchart-v2-crossEnd" class="marker cross flowchart-v2" viewBox="0 0 11 11" refX="12" refY="5.2" markerUnits="userSpaceOnUse" markerWidth="11" markerHeight="11" orient="auto"><path d="M 1,1 l 9,9 M 10,1 l -9,9" class="arrowMarkerPath" style="stroke-width: 2; stroke-dasharray: 1, 0;"/></marker><marker id="my-svg_flowchart-v2-crossStart" class="marker cross flowchart-v2" viewBox="0 0 11 11" refX="-1" refY="5.2" markerUnits="userSpaceOnUse" markerWidth="11" markerHeight="11" orient="auto"><path d="M 1,1 l 9,9 M 10,1 l -9,9" class="arrowMarkerPath" style="stroke-width: 2; stroke-dasharray: 1, 0;"/></marker><g class="root"><g class="clusters"><g class="cluster" id="TEST" data-look="classic"><rect style="" x="8" y="414" width="544.703125" height="396"/><g class="cluster-label" transform="translate(219.0546875, 414)"><foreignObject width="122.59375" height="24"><div xmlns="http://www.w3.org/1999/xhtml" style="display: table-cell; white-space: nowrap; line-height: 1.5; max-width: 200px; text-align: center;"><span class="nodeLabel"><p>Testing &amp; Quality</p></span></div></foreignObject></g></g><g class="cluster" id="DATA" data-look="classic"><rect style="" x="1697.703125" y="106" width="310" height="452"/><g class="cluster-label" transform="translate(1804.5, 106)"><foreignObject width="96.40625" height="24"><div xmlns="http://www.w3.org/1999/xhtml" style="display: table-cell; white-space: nowrap; line-height: 1.5; max-width: 200px; text-align: center;"><span class="nodeLabel"><p>Data / Config</p></span></div></foreignObject></g></g><g class="cluster" id="ENG" data-look="classic"><rect style="" x="1137.703125" y="892" width="1108.953125" height="300"/><g class="cluster-label" transform="translate(1646.2890625, 892)"><foreignObject width="91.78125" height="24"><div xmlns="http://www.w3.org/1999/xhtml" style="display: table-cell; white-space: nowrap; line-height: 1.5; max-width: 200px; text-align: center;"><span class="nodeLabel"><p>Core Engines</p></span></div></foreignObject></g></g><g class="cluster" id="API" data-look="classic"><rect style="" x="802.703125" y="8" width="645" height="864"/><g class="cluster-label" transform="translate(1091.7109375, 8)"><foreignObject width="66.984375" height="24"><div xmlns="http://www.w3.org/1999/xhtml" style="display: table-cell; white-space: nowrap; line-height: 1.5; max-width: 200px; text-align: center;"><span class="nodeLabel"><p>API Layer</p></span></div></foreignObject></g></g><g class="cluster" id="UI" data-look="classic"><rect style="" x="8" y="10" width="544.703125" height="384"/><g class="cluster-label" transform="translate(250.8515625, 10)"><foreignObject width="59" height="24"><div xmlns="http://www.w3.org/1999/xhtml" style="display: table-cell; white-space: nowrap; line-height: 1.5; max-width: 200px; text-align: center;"><span class="nodeLabel"><p>UI Layer</p></span></div></foreignObject></g></g></g><g class="edgePaths"><path d="M213.531,291L218.393,291C223.255,291,232.979,291,248.367,291C263.755,291,284.807,291,295.333,291L305.859,291" id="L_USER_ST_0" class="edge-thickness-normal edge-pattern-solid edge-thickness-normal edge-pattern-solid flowchart-link" style=";" data-edge="true" data-et="edge" data-id="L_USER_ST_0" data-points="W3sieCI6MjEzLjUzMTI1LCJ5IjoyOTF9LHsieCI6MjQyLjcwMzEyNSwieSI6MjkxfSx7IngiOjMwOS44NTkzNzUsInkiOjI5MX1d" marker-end="url(#my-svg_flowchart-v2-pointEnd)"/><path d="M1077.93,165L1083.725,165C1089.521,165,1101.112,165,1111.074,165C1121.036,165,1129.37,165,1154.81,197.94C1180.251,230.88,1222.798,296.76,1244.072,329.7L1265.346,362.64" id="L_RFW_FA_0" class="edge-thickness-normal edge-pattern-solid edge-thickness-normal edge-pattern-solid flowchart-link" style=";" data-edge="true" data-et="edge" data-id="L_RFW_FA_0" data-points="W3sieCI6MTA3Ny45Mjk2ODc1LCJ5IjoxNjV9LHsieCI6MTExMi43MDMxMjUsInkiOjE2NX0seyJ4IjoxMTM3LjcwMzEyNSwieSI6MTY1fSx7IngiOjEyNjcuNTE1NjI1LCJ5IjozNjZ9XQ==" marker-end="url(#my-svg_flowchart-v2-pointEnd)"/><path d="M1081.227,331L1086.473,331C1091.719,331,1102.211,331,1111.624,331C1121.036,331,1129.37,331,1145.153,336.546C1160.937,342.092,1184.171,353.184,1195.787,358.731L1207.404,364.277" id="L_RST_FA_0" class="edge-thickness-normal edge-pattern-solid edge-thickness-normal edge-pattern-solid flowchart-link" style=";" data-edge="true" data-et="edge" data-id="L_RST_FA_0" data-points="W3sieCI6MTA4MS4yMjY1NjI1LCJ5IjozMzF9LHsieCI6MTExMi43MDMxMjUsInkiOjMzMX0seyJ4IjoxMTM3LjcwMzEyNSwieSI6MzMxfSx7IngiOjEyMTEuMDEzOTM1ODEwODEwOCwieSI6MzY2fV0=" marker-end="url(#my-svg_flowchart-v2-pointEnd)"/><path d="M978.947,584L1001.24,555.667C1023.532,527.333,1068.118,470.667,1094.577,442.333C1121.036,414,1129.37,414,1138.652,413.703C1147.935,413.406,1158.166,412.812,1163.282,412.515L1168.397,412.218" id="L_REV_FA_0" class="edge-thickness-normal edge-pattern-solid edge-thickness-normal edge-pattern-solid flowchart-link" style=";" data-edge="true" data-et="edge" data-id="L_REV_FA_0" data-points="W3sieCI6OTc4Ljk0Njc3OTgyMjMzNSwieSI6NTg0fSx7IngiOjExMTIuNzAzMTI1LCJ5Ijo0MTR9LHsieCI6MTEzNy43MDMxMjUsInkiOjQxNH0seyJ4IjoxMTcyLjM5MDYyNSwieSI6NDExLjk4NTg4NzA5Njc3NDJ9XQ==" marker-end="url(#my-svg_flowchart-v2-pointEnd)"/><path d="M1087.703,474.935L1091.87,475.446C1096.036,475.957,1104.37,476.978,1112.703,477.489C1121.036,478,1129.37,478,1144.965,472.617C1160.561,467.235,1183.418,456.47,1194.847,451.087L1206.276,445.704" id="L_RCF_FA_0" class="edge-thickness-normal edge-pattern-solid edge-thickness-normal edge-pattern-solid flowchart-link" style=";" data-edge="true" data-et="edge" data-id="L_RCF_FA_0" data-points="W3sieCI6MTA4Ny43MDMxMjUsInkiOjQ3NC45MzU0ODM4NzA5Njc3NH0seyJ4IjoxMTEyLjcwMzEyNSwieSI6NDc4fSx7IngiOjExMzcuNzAzMTI1LCJ5Ijo0Nzh9LHsieCI6MTIwOS44OTQ5MDU4MjE5MTc3LCJ5Ijo0NDR9XQ==" marker-end="url(#my-svg_flowchart-v2-pointEnd)"/><path d="M978.019,721L1000.466,691.167C1022.913,661.333,1067.808,601.667,1094.422,571.833C1121.036,542,1129.37,542,1151.516,526.108C1173.663,510.216,1209.622,478.433,1227.602,462.541L1245.582,446.649" id="L_RPR_FA_0" class="edge-thickness-normal edge-pattern-solid edge-thickness-normal edge-pattern-solid flowchart-link" style=";" data-edge="true" data-et="edge" data-id="L_RPR_FA_0" data-points="W3sieCI6OTc4LjAxODY1ODk4MDU4MjUsInkiOjcyMX0seyJ4IjoxMTEyLjcwMzEyNSwieSI6NTQyfSx7IngiOjExMzcuNzAzMTI1LCJ5Ijo1NDJ9LHsieCI6MTI0OC41NzkwMzc0MDg3NTkyLCJ5Ijo0NDR9XQ==" marker-end="url(#my-svg_flowchart-v2-pointEnd)"/><path d="M1422.703,978L1426.87,978C1431.036,978,1439.37,978,1464.37,978C1489.37,978,1531.036,978,1572.703,978C1614.37,978,1656.036,978,1680.741,978.25C1705.445,978.5,1713.188,978.999,1717.059,979.249L1720.93,979.499" id="L_FW_SW_0" class="edge-thickness-normal edge-pattern-solid edge-thickness-normal edge-pattern-solid flowchart-link" style=";" data-edge="true" data-et="edge" data-id="L_FW_SW_0" data-points="W3sieCI6MTQyMi43MDMxMjUsInkiOjk3OH0seyJ4IjoxNDQ3LjcwMzEyNSwieSI6OTc4fSx7IngiOjE1NzIuNzAzMTI1LCJ5Ijo5Nzh9LHsieCI6MTY5Ny43MDMxMjUsInkiOjk3OH0seyJ4IjoxNzI0LjkyMTg3NSwieSI6OTc5Ljc1NjA0ODM4NzA5Njh9XQ==" marker-end="url(#my-svg_flowchart-v2-pointEnd)"/><path d="M1980.484,988L1985.021,988C1989.557,988,1998.63,988,2007.333,988C2016.036,988,2024.37,988,2032.085,989.426C2039.799,990.852,2046.896,993.705,2050.444,995.131L2053.992,996.557" id="L_SW_SE_0" class="edge-thickness-normal edge-pattern-solid edge-thickness-normal edge-pattern-solid flowchart-link" style=";" data-edge="true" data-et="edge" data-id="L_SW_SE_0" data-points="W3sieCI6MTk4MC40ODQzNzUsInkiOjk4OH0seyJ4IjoyMDA3LjcwMzEyNSwieSI6OTg4fSx7IngiOjIwMzIuNzAzMTI1LCJ5Ijo5ODh9LHsieCI6MjA1Ny43MDMxMjUsInkiOjk5OC4wNDg5MzAxMTAyNzU0fV0=" marker-end="url(#my-svg_flowchart-v2-pointEnd)"/><path d="M217.703,604L221.87,604C226.036,604,234.37,604,242.036,604C249.703,604,256.703,604,260.203,604L263.703,604" id="L_CI_PYT_0" class="edge-thickness-normal edge-pattern-solid edge-thickness-normal edge-pattern-solid flowchart-link" style=";" data-edge="true" data-et="edge" data-id="L_CI_PYT_0" data-points="W3sieCI6MjE3LjcwMzEyNSwieSI6NjA0fSx7IngiOjI0Mi43MDMxMjUsInkiOjYwNH0seyJ4IjoyNjcuNzAzMTI1LCJ5Ijo2MDR9XQ==" marker-end="url(#my-svg_flowchart-v2-pointEnd)"/><path d="M424.69,252L446.025,221.167C467.361,190.333,510.032,128.667,552.201,97.833C594.37,67,636.036,67,677.703,67C719.37,67,761.036,67,800.022,78.477C839.008,89.954,875.313,112.908,893.466,124.385L911.618,135.862" id="L_ST_RFW_0" class="edge-thickness-normal edge-pattern-solid edge-thickness-normal edge-pattern-solid flowchart-link" style=";" data-edge="true" data-et="edge" data-id="L_ST_RFW_0" data-points="W3sieCI6NDI0LjY4OTczMjE0Mjg1NzE3LCJ5IjoyNTJ9LHsieCI6NTUyLjcwMzEyNSwieSI6Njd9LHsieCI6Njc3LjcwMzEyNSwieSI6Njd9LHsieCI6ODAyLjcwMzEyNSwieSI6Njd9LHsieCI6OTE0Ljk5OTA0MzM2NzM0NywieSI6MTM4fV0=" marker-end="url(#my-svg_flowchart-v2-pointEnd)"/><path d="M435.963,252L455.419,232.167C474.876,212.333,513.79,172.667,554.08,181.167C594.37,189.667,636.036,246.333,677.703,274.667C719.37,303,761.036,303,786.46,303.829C811.883,304.658,821.063,306.317,825.653,307.146L830.243,307.975" id="L_ST_RST_0" class="edge-thickness-normal edge-pattern-solid edge-thickness-normal edge-pattern-solid flowchart-link" style=";" data-edge="true" data-et="edge" data-id="L_ST_RST_0" data-points="W3sieCI6NDM1Ljk2MjYxODY3MDg4NjA2LCJ5IjoyNTJ9LHsieCI6NTUyLjcwMzEyNSwieSI6MTMzfSx7IngiOjY3Ny43MDMxMjUsInkiOjMwM30seyJ4Ijo4MDIuNzAzMTI1LCJ5IjozMDN9LHsieCI6ODM0LjE3OTY4NzUsInkiOjMwOC42ODYwODg3MDk2Nzc0fV0=" marker-end="url(#my-svg_flowchart-v2-pointEnd)"/><path d="M485.547,280.799L496.74,279.499C507.932,278.199,530.318,275.6,562.344,320.633C594.37,365.667,636.036,458.333,677.703,504.667C719.37,551,761.036,551,795.456,556.259C829.876,561.519,857.05,572.037,870.636,577.297L884.223,582.556" id="L_ST_REV_0" class="edge-thickness-normal edge-pattern-solid edge-thickness-normal edge-pattern-solid flowchart-link" style=";" data-edge="true" data-et="edge" data-id="L_ST_REV_0" data-points="W3sieCI6NDg1LjU0Njg3NSwieSI6MjgwLjc5ODc5MDMyMjU4MDY2fSx7IngiOjU1Mi43MDMxMjUsInkiOjI3M30seyJ4Ijo2NzcuNzAzMTI1LCJ5Ijo1NTF9LHsieCI6ODAyLjcwMzEyNSwieSI6NTUxfSx7IngiOjg4Ny45NTMxMjUsInkiOjU4NH1d" marker-end="url(#my-svg_flowchart-v2-pointEnd)"/><path d="M463.41,252L478.292,243.167C493.174,234.333,522.939,216.667,558.654,245.167C594.37,273.667,636.036,348.333,677.703,385.667C719.37,423,761.036,423,785.387,423.817C809.738,424.634,816.772,426.268,820.29,427.085L823.807,427.902" id="L_ST_RCF_0" class="edge-thickness-normal edge-pattern-solid edge-thickness-normal edge-pattern-solid flowchart-link" style=";" data-edge="true" data-et="edge" data-id="L_ST_RCF_0" data-points="W3sieCI6NDYzLjQwOTY0NjczOTEzMDQ0LCJ5IjoyNTJ9LHsieCI6NTUyLjcwMzEyNSwieSI6MTk5fSx7IngiOjY3Ny43MDMxMjUsInkiOjQyM30seyJ4Ijo4MDIuNzAzMTI1LCJ5Ijo0MjN9LHsieCI6ODI3LjcwMzEyNSwieSI6NDI4LjgwNjQ1MTYxMjkwMzIzfV0=" marker-end="url(#my-svg_flowchart-v2-pointEnd)"/><path d="M485.547,322.737L496.74,326.781C507.932,330.825,530.318,338.912,562.344,401.956C594.37,465,636.036,583,677.703,642C719.37,701,761.036,701,792.225,704.14C823.413,707.28,844.123,713.56,854.478,716.699L864.833,719.839" id="L_ST_RPR_0" class="edge-thickness-normal edge-pattern-solid edge-thickness-normal edge-pattern-solid flowchart-link" style=";" data-edge="true" data-et="edge" data-id="L_ST_RPR_0" data-points="W3sieCI6NDg1LjU0Njg3NSwieSI6MzIyLjczNzA5Njc3NDE5MzU2fSx7IngiOjU1Mi43MDMxMjUsInkiOjM0N30seyJ4Ijo2NzcuNzAzMTI1LCJ5Ijo3MDF9LHsieCI6ODAyLjcwMzEyNSwieSI6NzAxfSx7IngiOjg2OC42NjA1NzE4MDg1MTA3LCJ5Ijo3MjF9XQ==" marker-end="url(#my-svg_flowchart-v2-pointEnd)"/><path d="M1009.37,638L1026.592,647C1043.814,656,1078.259,674,1099.648,683C1121.036,692,1129.37,692,1154.445,730.581C1179.521,769.161,1221.339,846.322,1242.248,884.903L1263.157,923.483" id="L_REV_FW_0" class="edge-thickness-normal edge-pattern-solid edge-thickness-normal edge-pattern-solid flowchart-link" style=";" data-edge="true" data-et="edge" data-id="L_REV_FW_0" data-points="W3sieCI6MTAwOS4zNjk3OTE2NjY2NjY2LCJ5Ijo2Mzh9LHsieCI6MTExMi43MDMxMjUsInkiOjY5Mn0seyJ4IjoxMTM3LjcwMzEyNSwieSI6NjkyfSx7IngiOjEyNjUuMDYzMjY0ODYwMTQsInkiOjkyN31d" marker-end="url(#my-svg_flowchart-v2-pointEnd)"/><path d="M1066.977,621.575L1074.598,622.312C1082.219,623.05,1097.461,624.525,1109.249,625.262C1121.036,626,1129.37,626,1159.37,626C1189.37,626,1241.036,626,1292.703,626C1344.37,626,1396.036,626,1442.703,700.833C1489.37,775.667,1531.036,925.333,1572.703,1000.167C1614.37,1075,1656.036,1075,1686.978,1069.326C1717.92,1063.653,1738.136,1052.305,1748.245,1046.632L1758.353,1040.958" id="L_REV_SW_0" class="edge-thickness-normal edge-pattern-solid edge-thickness-normal edge-pattern-solid flowchart-link" style=";" data-edge="true" data-et="edge" data-id="L_REV_SW_0" data-points="W3sieCI6MTA2Ni45NzY1NjI1LCJ5Ijo2MjEuNTc0ODQ4NzkwMzIyNn0seyJ4IjoxMTEyLjcwMzEyNSwieSI6NjI2fSx7IngiOjExMzcuNzAzMTI1LCJ5Ijo2MjZ9LHsieCI6MTI5Mi43MDMxMjUsInkiOjYyNn0seyJ4IjoxNDQ3LjcwMzEyNSwieSI6NjI2fSx7IngiOjE1NzIuNzAzMTI1LCJ5IjoxMDc1fSx7IngiOjE2OTcuNzAzMTI1LCJ5IjoxMDc1fSx7IngiOjE3NjEuODQxMDU2MDM0NDgyOCwieSI6MTAzOX1d" marker-end="url(#my-svg_flowchart-v2-pointEnd)"/><path d="M1026.31,638L1040.709,643.667C1055.107,649.333,1083.905,660.667,1102.471,666.333C1121.036,672,1129.37,672,1159.37,672C1189.37,672,1241.036,672,1292.703,672C1344.37,672,1396.036,672,1442.703,748C1489.37,824,1531.036,976,1572.703,1052C1614.37,1128,1656.036,1128,1702.703,1128C1749.37,1128,1801.036,1128,1852.703,1128C1904.37,1128,1956.036,1128,1986.036,1128C2016.036,1128,2024.37,1128,2038.703,1118.781C2053.037,1109.562,2073.371,1091.125,2083.538,1081.906L2093.705,1072.687" id="L_REV_SE_0" class="edge-thickness-normal edge-pattern-solid edge-thickness-normal edge-pattern-solid flowchart-link" style=";" data-edge="true" data-et="edge" data-id="L_REV_SE_0" data-points="W3sieCI6MTAyNi4zMDk2ODIzNzcwNDkzLCJ5Ijo2Mzh9LHsieCI6MTExMi43MDMxMjUsInkiOjY3Mn0seyJ4IjoxMTM3LjcwMzEyNSwieSI6NjcyfSx7IngiOjEyOTIuNzAzMTI1LCJ5Ijo2NzJ9LHsieCI6MTQ0Ny43MDMxMjUsInkiOjY3Mn0seyJ4IjoxNTcyLjcwMzEyNSwieSI6MTEyOH0seyJ4IjoxNjk3LjcwMzEyNSwieSI6MTEyOH0seyJ4IjoxODUyLjcwMzEyNSwieSI6MTEyOH0seyJ4IjoyMDA3LjcwMzEyNSwieSI6MTEyOH0seyJ4IjoyMDMyLjcwMzEyNSwieSI6MTEyOH0seyJ4IjoyMDk2LjY2ODQ5MjI2ODA0MSwieSI6MTA3MH1d" marker-end="url(#my-svg_flowchart-v2-pointEnd)"/><path d="M1059.625,751.945L1068.471,752.288C1077.318,752.63,1095.01,753.315,1108.023,753.658C1121.036,754,1129.37,754,1156.341,807.553C1183.312,861.107,1228.92,968.213,1251.725,1021.766L1274.529,1075.32" id="L_RPR_PE_0" class="edge-thickness-normal edge-pattern-solid edge-thickness-normal edge-pattern-solid flowchart-link" style=";" data-edge="true" data-et="edge" data-id="L_RPR_PE_0" data-points="W3sieCI6MTA1OS42MjUsInkiOjc1MS45NDUzNjI5MDMyMjU4fSx7IngiOjExMTIuNzAzMTI1LCJ5Ijo3NTR9LHsieCI6MTEzNy43MDMxMjUsInkiOjc1NH0seyJ4IjoxMjc2LjA5NTk4MjE0Mjg1NywieSI6MTA3OX1d" marker-end="url(#my-svg_flowchart-v2-pointEnd)"/><path d="M1322.778,366L1343.599,339C1364.42,312,1406.061,258,1447.716,231C1489.37,204,1531.036,204,1572.703,204C1614.37,204,1656.036,204,1680.37,204C1704.703,204,1711.703,204,1715.203,204L1718.703,204" id="L_FA_YAML_0" class="edge-thickness-normal edge-pattern-solid edge-thickness-normal edge-pattern-solid flowchart-link" style=";" data-edge="true" data-et="edge" data-id="L_FA_YAML_0" data-points="W3sieCI6MTMyMi43Nzc3NTE4NjU2NzE3LCJ5IjozNjZ9LHsieCI6MTQ0Ny43MDMxMjUsInkiOjIwNH0seyJ4IjoxNTcyLjcwMzEyNSwieSI6MjA0fSx7IngiOjE2OTcuNzAzMTI1LCJ5IjoyMDR9LHsieCI6MTcyMi43MDMxMjUsInkiOjIwNH1d" marker-end="url(#my-svg_flowchart-v2-pointEnd)"/><path d="M1413.016,376.28L1418.797,374.9C1424.578,373.52,1436.141,370.76,1462.755,369.38C1489.37,368,1531.036,368,1572.703,368C1614.37,368,1656.036,368,1680.37,368C1704.703,368,1711.703,368,1715.203,368L1718.703,368" id="L_FA_DB_0" class="edge-thickness-normal edge-pattern-solid edge-thickness-normal edge-pattern-solid flowchart-link" style=";" data-edge="true" data-et="edge" data-id="L_FA_DB_0" data-points="W3sieCI6MTQxMy4wMTU2MjUsInkiOjM3Ni4yODAyNDE5MzU0ODM5fSx7IngiOjE0NDcuNzAzMTI1LCJ5IjozNjh9LHsieCI6MTU3Mi43MDMxMjUsInkiOjM2OH0seyJ4IjoxNjk3LjcwMzEyNSwieSI6MzY4fSx7IngiOjE3MjIuNzAzMTI1LCJ5IjozNjh9XQ==" marker-end="url(#my-svg_flowchart-v2-pointEnd)"/><path d="M1359.132,444L1373.894,452.667C1388.656,461.333,1418.179,478.667,1453.775,487.333C1489.37,496,1531.036,496,1572.703,496C1614.37,496,1656.036,496,1683.482,496C1710.927,496,1724.151,496,1730.763,496L1737.375,496" id="L_FA_LOG_0" class="edge-thickness-normal edge-pattern-dotted edge-thickness-normal edge-pattern-solid flowchart-link" style=";" data-edge="true" data-et="edge" data-id="L_FA_LOG_0" data-points="W3sieCI6MTM1OS4xMzE2OTY0Mjg1NzEzLCJ5Ijo0NDR9LHsieCI6MTQ0Ny43MDMxMjUsInkiOjQ5Nn0seyJ4IjoxNTcyLjcwMzEyNSwieSI6NDk2fSx7IngiOjE2OTcuNzAzMTI1LCJ5Ijo0OTZ9LHsieCI6MTc0MS4zNzUsInkiOjQ5Nn1d" marker-end="url(#my-svg_flowchart-v2-pointEnd)"/><path d="M459.947,553L475.407,540.333C490.866,527.667,521.784,502.333,558.077,451.333C594.37,400.333,636.036,323.667,677.703,285.333C719.37,247,761.036,247,798.608,238.145C836.179,229.29,869.655,211.58,886.393,202.725L903.131,193.871" id="L_PYT_RFW_0" class="edge-thickness-normal edge-pattern-dotted edge-thickness-normal edge-pattern-solid flowchart-link" style=";" data-edge="true" data-et="edge" data-id="L_PYT_RFW_0" data-points="W3sieCI6NDU5Ljk0NzIxOTQ4ODE4OSwieSI6NTUzfSx7IngiOjU1Mi43MDMxMjUsInkiOjQ3N30seyJ4Ijo2NzcuNzAzMTI1LCJ5IjoyNDd9LHsieCI6ODAyLjcwMzEyNSwieSI6MjQ3fSx7IngiOjkwNi42NjY1Mzk2MzQxNDY0LCJ5IjoxOTJ9XQ==" marker-end="url(#my-svg_flowchart-v2-pointEnd)"/><path d="M527.703,559.548L531.87,558.124C536.036,556.699,544.37,553.849,569.37,521.758C594.37,489.667,636.036,428.333,677.703,397.667C719.37,367,761.036,367,787.679,365.651C814.321,364.302,825.939,361.603,831.748,360.254L837.557,358.905" id="L_PYT_RST_0" class="edge-thickness-normal edge-pattern-dotted edge-thickness-normal edge-pattern-solid flowchart-link" style=";" data-edge="true" data-et="edge" data-id="L_PYT_RST_0" data-points="W3sieCI6NTI3LjcwMzEyNSwieSI6NTU5LjU0ODM4NzA5Njc3NDF9LHsieCI6NTUyLjcwMzEyNSwieSI6NTUxfSx7IngiOjY3Ny43MDMxMjUsInkiOjM2N30seyJ4Ijo4MDIuNzAzMTI1LCJ5IjozNjd9LHsieCI6ODQxLjQ1MzEyNSwieSI6MzU4fV0=" marker-end="url(#my-svg_flowchart-v2-pointEnd)"/><path d="M488.565,655L499.255,661C509.945,667,531.324,679,562.847,677.333C594.37,675.667,636.036,660.333,677.703,652.667C719.37,645,761.036,645,788.84,643.471C816.643,641.942,830.583,638.884,837.553,637.356L844.523,635.827" id="L_PYT_REV_0" class="edge-thickness-normal edge-pattern-dotted edge-thickness-normal edge-pattern-solid flowchart-link" style=";" data-edge="true" data-et="edge" data-id="L_PYT_REV_0" data-points="W3sieCI6NDg4LjU2NTE5Mzk2NTUxNzIsInkiOjY1NX0seyJ4Ijo1NTIuNzAzMTI1LCJ5Ijo2OTF9LHsieCI6Njc3LjcwMzEyNSwieSI6NjQ1fSx7IngiOjgwMi43MDMxMjUsInkiOjY0NX0seyJ4Ijo4NDguNDI5Njg3NSwieSI6NjM0Ljk2OTY1NzI1ODA2NDZ9XQ==" marker-end="url(#my-svg_flowchart-v2-pointEnd)"/><path d="M527.703,621.613L531.87,622.177C536.036,622.742,544.37,623.871,569.37,602.769C594.37,581.667,636.036,538.333,677.703,516.667C719.37,495,761.036,495,785.387,494.183C809.738,493.366,816.772,491.732,820.29,490.915L823.807,490.098" id="L_PYT_RCF_0" class="edge-thickness-normal edge-pattern-dotted edge-thickness-normal edge-pattern-solid flowchart-link" style=";" data-edge="true" data-et="edge" data-id="L_PYT_RCF_0" data-points="W3sieCI6NTI3LjcwMzEyNSwieSI6NjIxLjYxMjkwMzIyNTgwNjV9LHsieCI6NTUyLjcwMzEyNSwieSI6NjI1fSx7IngiOjY3Ny43MDMxMjUsInkiOjQ5NX0seyJ4Ijo4MDIuNzAzMTI1LCJ5Ijo0OTV9LHsieCI6ODI3LjcwMzEyNSwieSI6NDg5LjE5MzU0ODM4NzA5Njc3fV0=" marker-end="url(#my-svg_flowchart-v2-pointEnd)"/><path d="M449.37,655L466.592,672C483.814,689,518.259,723,556.314,740C594.37,757,636.036,757,677.703,757C719.37,757,761.036,757,790.051,756.525C819.065,756.05,835.426,755.1,843.607,754.625L851.788,754.15" id="L_PYT_RPR_0" class="edge-thickness-normal edge-pattern-dotted edge-thickness-normal edge-pattern-solid flowchart-link" style=";" data-edge="true" data-et="edge" data-id="L_PYT_RPR_0" data-points="W3sieCI6NDQ5LjM2OTc5MTY2NjY2NjcsInkiOjY1NX0seyJ4Ijo1NTIuNzAzMTI1LCJ5Ijo3NTd9LHsieCI6Njc3LjcwMzEyNSwieSI6NzU3fSx7IngiOjgwMi43MDMxMjUsInkiOjc1N30seyJ4Ijo4NTUuNzgxMjUsInkiOjc1My45MTgwNDQzNTQ4Mzg3fV0=" marker-end="url(#my-svg_flowchart-v2-pointEnd)"/></g><g class="edgeLabels"><g class="edgeLabel"><g class="label" data-id="L_USER_ST_0" transform="translate(0, 0)"><foreignObject width="0" height="0"><div xmlns="http://www.w3.org/1999/xhtml" class="labelBkg" style="display: table-cell; white-space: nowrap; line-height: 1.5; max-width: 200px; text-align: center;"><span class="edgeLabel"></span></div></foreignObject></g></g><g class="edgeLabel"><g class="label" data-id="L_RFW_FA_0" transform="translate(0, 0)"><foreignObject width="0" height="0"><div xmlns="http://www.w3.org/1999/xhtml" class="labelBkg" style="display: table-cell; white-space: nowrap; line-height: 1.5; max-width: 200px; text-align: center;"><span class="edgeLabel"></span></div></foreignObject></g></g><g class="edgeLabel"><g class="label" data-id="L_RST_FA_0" transform="translate(0, 0)"><foreignObject width="0" height="0"><div xmlns="http://www.w3.org/1999/xhtml" class="labelBkg" style="display: table-cell; white-space: nowrap; line-height: 1.5; max-width: 200px; text-align: center;"><span class="edgeLabel"></span></div></foreignObject></g></g><g class="edgeLabel"><g class="label" data-id="L_REV_FA_0" transform="translate(0, 0)"><foreignObject width="0" height="0"><div xmlns="http://www.w3.org/1999/xhtml" class="labelBkg" style="display: table-cell; white-space: nowrap; line-height: 1.5; max-width: 200px; text-align: center;"><span class="edgeLabel"></span></div></foreignObject></g></g><g class="edgeLabel"><g class="label" data-id="L_RCF_FA_0" transform="translate(0, 0)"><foreignObject width="0" height="0"><div xmlns="http://www.w3.org/1999/xhtml" class="labelBkg" style="display: table-cell; white-space: nowrap; line-height: 1.5; max-width: 200px; text-align: center;"><span class="edgeLabel"></span></div></foreignObject></g></g><g class="edgeLabel"><g class="label" data-id="L_RPR_FA_0" transform="translate(0, 0)"><foreignObject width="0" height="0"><div xmlns="http://www.w3.org/1999/xhtml" class="labelBkg" style="display: table-cell; white-space: nowrap; line-height: 1.5; max-width: 200px; text-align: center;"><span class="edgeLabel"></span></div></foreignObject></g></g><g class="edgeLabel"><g class="label" data-id="L_FW_SW_0" transform="translate(0, 0)"><foreignObject width="0" height="0"><div xmlns="http://www.w3.org/1999/xhtml" class="labelBkg" style="display: table-cell; white-space: nowrap; line-height: 1.5; max-width: 200px; text-align: center;"><span class="edgeLabel"></span></div></foreignObject></g></g><g class="edgeLabel"><g class="label" data-id="L_SW_SE_0" transform="translate(0, 0)"><foreignObject width="0" height="0"><div xmlns="http://www.w3.org/1999/xhtml" class="labelBkg" style="display: table-cell; white-space: nowrap; line-height: 1.5; max-width: 200px; text-align: center;"><span class="edgeLabel"></span></div></foreignObject></g></g><g class="edgeLabel"><g class="label" data-id="L_CI_PYT_0" transform="translate(0, 0)"><foreignObject width="0" height="0"><div xmlns="http://www.w3.org/1999/xhtml" class="labelBkg" style="display: table-cell; white-space: nowrap; line-height: 1.5; max-width: 200px; text-align: center;"><span class="edgeLabel"></span></div></foreignObject></g></g><g class="edgeLabel" transform="translate(677.703125, 67)"><g class="label" data-id="L_ST_RFW_0" transform="translate(-77.84375, -12)"><foreignObject width="155.6875" height="24"><div xmlns="http://www.w3.org/1999/xhtml" class="labelBkg" style="display: table-cell; white-space: nowrap; line-height: 1.5; max-width: 200px; text-align: center;"><span class="edgeLabel"><p>GET /api/frameworks</p></span></div></foreignObject></g></g><g class="edgeLabel" transform="translate(677.703125, 303)"><g class="label" data-id="L_ST_RST_0" transform="translate(-81.140625, -12)"><foreignObject width="162.28125" height="24"><div xmlns="http://www.w3.org/1999/xhtml" class="labelBkg" style="display: table-cell; white-space: nowrap; line-height: 1.5; max-width: 200px; text-align: center;"><span class="edgeLabel"><p>GET /api/stakeholders</p></span></div></foreignObject></g></g><g class="edgeLabel" transform="translate(677.703125, 551)"><g class="label" data-id="L_ST_REV_0" transform="translate(-70.8984375, -12)"><foreignObject width="141.796875" height="24"><div xmlns="http://www.w3.org/1999/xhtml" class="labelBkg" style="display: table-cell; white-space: nowrap; line-height: 1.5; max-width: 200px; text-align: center;"><span class="edgeLabel"><p>POST /api/evaluate</p></span></div></foreignObject></g></g><g class="edgeLabel" transform="translate(677.703125, 423)"><g class="label" data-id="L_ST_RCF_0" transform="translate(-70.5390625, -12)"><foreignObject width="141.078125" height="24"><div xmlns="http://www.w3.org/1999/xhtml" class="labelBkg" style="display: table-cell; white-space: nowrap; line-height: 1.5; max-width: 200px; text-align: center;"><span class="edgeLabel"><p>POST /api/conflicts</p></span></div></foreignObject></g></g><g class="edgeLabel" transform="translate(677.703125, 701)"><g class="label" data-id="L_ST_RPR_0" transform="translate(-63.5390625, -12)"><foreignObject width="127.078125" height="24"><div xmlns="http://www.w3.org/1999/xhtml" class="labelBkg" style="display: table-cell; white-space: nowrap; line-height: 1.5; max-width: 200px; text-align: center;"><span class="edgeLabel"><p>POST /api/pareto</p></span></div></foreignObject></g></g><g class="edgeLabel"><g class="label" data-id="L_REV_FW_0" transform="translate(0, 0)"><foreignObject width="0" height="0"><div xmlns="http://www.w3.org/1999/xhtml" class="labelBkg" style="display: table-cell; white-space: nowrap; line-height: 1.5; max-width: 200px; text-align: center;"><span class="edgeLabel"></span></div></foreignObject></g></g><g class="edgeLabel"><g class="label" data-id="L_REV_SW_0" transform="translate(0, 0)"><foreignObject width="0" height="0"><div xmlns="http://www.w3.org/1999/xhtml" class="labelBkg" style="display: table-cell; white-space: nowrap; line-height: 1.5; max-width: 200px; text-align: center;"><span class="edgeLabel"></span></div></foreignObject></g></g><g class="edgeLabel"><g class="label" data-id="L_REV_SE_0" transform="translate(0, 0)"><foreignObject width="0" height="0"><div xmlns="http://www.w3.org/1999/xhtml" class="labelBkg" style="display: table-cell; white-space: nowrap; line-height: 1.5; max-width: 200px; text-align: center;"><span class="edgeLabel"></span></div></foreignObject></g></g><g class="edgeLabel"><g class="label" data-id="L_RPR_PE_0" transform="translate(0, 0)"><foreignObject width="0" height="0"><div xmlns="http://www.w3.org/1999/xhtml" class="labelBkg" style="display: table-cell; white-space: nowrap; line-height: 1.5; max-width: 200px; text-align: center;"><span class="edgeLabel"></span></div></foreignObject></g></g><g class="edgeLabel" transform="translate(1572.703125, 204)"><g class="label" data-id="L_FA_YAML_0" transform="translate(-89.484375, -12)"><foreignObject width="178.96875" height="24"><div xmlns="http://www.w3.org/1999/xhtml" class="labelBkg" style="display: table-cell; white-space: nowrap; line-height: 1.5; max-width: 200px; text-align: center;"><span class="edgeLabel"><p>load at startup / registry</p></span></div></foreignObject></g></g><g class="edgeLabel" transform="translate(1572.703125, 368)"><g class="label" data-id="L_FA_DB_0" transform="translate(-100, -24)"><foreignObject width="200" height="48"><div xmlns="http://www.w3.org/1999/xhtml" class="labelBkg" style="display: table; white-space: break-spaces; line-height: 1.5; max-width: 200px; text-align: center; width: 200px;"><span class="edgeLabel"><p>read stakeholder weights / profiles</p></span></div></foreignObject></g></g><g class="edgeLabel" transform="translate(1572.703125, 496)"><g class="label" data-id="L_FA_LOG_0" transform="translate(-50.8515625, -12)"><foreignObject width="101.703125" height="24"><div xmlns="http://www.w3.org/1999/xhtml" class="labelBkg" style="display: table-cell; white-space: nowrap; line-height: 1.5; max-width: 200px; text-align: center;"><span class="edgeLabel"><p>JSONL records</p></span></div></foreignObject></g></g><g class="edgeLabel" transform="translate(677.703125, 247)"><g class="label" data-id="L_PYT_RFW_0" transform="translate(-100, -24)"><foreignObject width="200" height="48"><div xmlns="http://www.w3.org/1999/xhtml" class="labelBkg" style="display: table; white-space: break-spaces; line-height: 1.5; max-width: 200px; text-align: center; width: 200px;"><span class="edgeLabel"><p>TestClient / endpoint assertions</p></span></div></foreignObject></g></g><g class="edgeLabel" transform="translate(677.703125, 367)"><g class="label" data-id="L_PYT_RST_0" transform="translate(-100, -24)"><foreignObject width="200" height="48"><div xmlns="http://www.w3.org/1999/xhtml" class="labelBkg" style="display: table; white-space: break-spaces; line-height: 1.5; max-width: 200px; text-align: center; width: 200px;"><span class="edgeLabel"><p>TestClient / endpoint assertions</p></span></div></foreignObject></g></g><g class="edgeLabel" transform="translate(677.703125, 645)"><g class="label" data-id="L_PYT_REV_0" transform="translate(-100, -24)"><foreignObject width="200" height="48"><div xmlns="http://www.w3.org/1999/xhtml" class="labelBkg" style="display: table; white-space: break-spaces; line-height: 1.5; max-width: 200px; text-align: center; width: 200px;"><span class="edgeLabel"><p>TestClient / endpoint assertions</p></span></div></foreignObject></g></g><g class="edgeLabel" transform="translate(677.703125, 495)"><g class="label" data-id="L_PYT_RCF_0" transform="translate(-100, -24)"><foreignObject width="200" height="48"><div xmlns="http://www.w3.org/1999/xhtml" class="labelBkg" style="display: table; white-space: break-spaces; line-height: 1.5; max-width: 200px; text-align: center; width: 200px;"><span class="edgeLabel"><p>TestClient / endpoint assertions</p></span></div></foreignObject></g></g><g class="edgeLabel" transform="translate(677.703125, 757)"><g class="label" data-id="L_PYT_RPR_0" transform="translate(-100, -24)"><foreignObject width="200" height="48"><div xmlns="http://www.w3.org/1999/xhtml" class="labelBkg" style="display: table; white-space: break-spaces; line-height: 1.5; max-width: 200px; text-align: center; width: 200px;"><span class="edgeLabel"><p>TestClient / endpoint assertions</p></span></div></foreignObject></g></g></g><g class="nodes"><g class="node default" id="flowchart-USER-0" transform="translate(125.3515625, 291)"><rect class="basic label-container" style="" x="-88.1796875" y="-27" width="176.359375" height="54"/><g class="label" style="" transform="translate(-58.1796875, -12)"><rect/><foreignObject width="116.359375" height="24"><div xmlns="http://www.w3.org/1999/xhtml" style="display: table-cell; white-space: nowrap; line-height: 1.5; max-width: 200px; text-align: center;"><span class="nodeLabel"><p>User / Examiner</p></span></div></foreignObject></g></g><g class="node default" id="flowchart-ST-1" transform="translate(397.703125, 291)"><rect class="basic label-container" style="" x="-87.84375" y="-39" width="175.6875" height="78"/><g class="label" style="" transform="translate(-57.84375, -24)"><rect/><foreignObject width="115.6875" height="48"><div xmlns="http://www.w3.org/1999/xhtml" style="display: table-cell; white-space: nowrap; line-height: 1.5; max-width: 200px; text-align: center;"><span class="nodeLabel"><p>Streamlit UI<br />(localhost:8501)</p></span></div></foreignObject></g></g><g class="node default" id="flowchart-FA-4" transform="translate(1292.703125, 405)"><rect class="basic label-container" style="" x="-120.3125" y="-39" width="240.625" height="78"/><g class="label" style="" transform="translate(-90.3125, -24)"><rect/><foreignObject width="180.625" height="48"><div xmlns="http://www.w3.org/1999/xhtml" style="display: table-cell; white-space: nowrap; line-height: 1.5; max-width: 200px; text-align: center;"><span class="nodeLabel"><p>FastAPI Backend<br />(Uvicorn, localhost:8000)</p></span></div></foreignObject></g></g><g class="node default" id="flowchart-RFW-5" transform="translate(957.703125, 165)"><rect class="basic label-container" style="" x="-120.2265625" y="-27" width="240.453125" height="54"/><g class="label" style="" transform="translate(-90.2265625, -12)"><rect/><foreignObject width="180.453125" height="24"><div xmlns="http://www.w3.org/1999/xhtml" style="display: table-cell; white-space: nowrap; line-height: 1.5; max-width: 200px; text-align: center;"><span class="nodeLabel"><p>Router: /api/frameworks</p></span></div></foreignObject></g></g><g class="node default" id="flowchart-RST-6" transform="translate(957.703125, 331)"><rect class="basic label-container" style="" x="-123.5234375" y="-27" width="247.046875" height="54"/><g class="label" style="" transform="translate(-93.5234375, -12)"><rect/><foreignObject width="187.046875" height="24"><div xmlns="http://www.w3.org/1999/xhtml" style="display: table-cell; white-space: nowrap; line-height: 1.5; max-width: 200px; text-align: center;"><span class="nodeLabel"><p>Router: /api/stakeholders</p></span></div></foreignObject></g></g><g class="node default" id="flowchart-REV-7" transform="translate(957.703125, 611)"><rect class="basic label-container" style="" x="-109.2734375" y="-27" width="218.546875" height="54"/><g class="label" style="" transform="translate(-79.2734375, -12)"><rect/><foreignObject width="158.546875" height="24"><div xmlns="http://www.w3.org/1999/xhtml" style="display: table-cell; white-space: nowrap; line-height: 1.5; max-width: 200px; text-align: center;"><span class="nodeLabel"><p>Router: /api/evaluate</p></span></div></foreignObject></g></g><g class="node default" id="flowchart-RCF-8" transform="translate(957.703125, 459)"><rect class="basic label-container" style="" x="-130" y="-51" width="260" height="102"/><g class="label" style="" transform="translate(-100, -36)"><rect/><foreignObject width="200" height="72"><div xmlns="http://www.w3.org/1999/xhtml" style="display: table; white-space: break-spaces; line-height: 1.5; max-width: 200px; text-align: center; width: 200px;"><span class="nodeLabel"><p>Router: /api/conflicts<br />(validation + conflict analysis)</p></span></div></foreignObject></g></g><g class="node default" id="flowchart-RPR-9" transform="translate(957.703125, 748)"><rect class="basic label-container" style="" x="-101.921875" y="-27" width="203.84375" height="54"/><g class="label" style="" transform="translate(-71.921875, -12)"><rect/><foreignObject width="143.84375" height="24"><div xmlns="http://www.w3.org/1999/xhtml" style="display: table-cell; white-space: nowrap; line-height: 1.5; max-width: 200px; text-align: center;"><span class="nodeLabel"><p>Router: /api/pareto</p></span></div></foreignObject></g></g><g class="node default" id="flowchart-FW-20" transform="translate(1292.703125, 978)"><rect class="basic label-container" style="" x="-130" y="-51" width="260" height="102"/><g class="label" style="" transform="translate(-100, -36)"><rect/><foreignObject width="200" height="72"><div xmlns="http://www.w3.org/1999/xhtml" style="display: table; white-space: break-spaces; line-height: 1.5; max-width: 200px; text-align: center; width: 200px;"><span class="nodeLabel"><p>Framework Weighting<br />(section/coverage-derived prior wf)</p></span></div></foreignObject></g></g><g class="node default" id="flowchart-SW-21" transform="translate(1852.703125, 988)"><rect class="basic label-container" style="" x="-127.78125" y="-51" width="255.5625" height="102"/><g class="label" style="" transform="translate(-97.78125, -36)"><rect/><foreignObject width="195.5625" height="72"><div xmlns="http://www.w3.org/1999/xhtml" style="display: table-cell; white-space: nowrap; line-height: 1.5; max-width: 200px; text-align: center;"><span class="nodeLabel"><p>Stakeholder Weighting (ws)<br />+ Product Pooling<br />(w_eff ∝ ws × wf)</p></span></div></foreignObject></g></g><g class="node default" id="flowchart-SE-22" transform="translate(2139.6796875, 1031)"><rect class="basic label-container" style="" x="-81.9765625" y="-39" width="163.953125" height="78"/><g class="label" style="" transform="translate(-51.9765625, -24)"><rect/><foreignObject width="103.953125" height="48"><div xmlns="http://www.w3.org/1999/xhtml" style="display: table-cell; white-space: nowrap; line-height: 1.5; max-width: 200px; text-align: center;"><span class="nodeLabel"><p>Scoring Engine<br />(TOPSIS, WSM)</p></span></div></foreignObject></g></g><g class="node default" id="flowchart-PE-23" transform="translate(1292.703125, 1118)"><rect class="basic label-container" style="" x="-120.15625" y="-39" width="240.3125" height="78"/><g class="label" style="" transform="translate(-90.15625, -24)"><rect/><foreignObject width="180.3125" height="48"><div xmlns="http://www.w3.org/1999/xhtml" style="display: table-cell; white-space: nowrap; line-height: 1.5; max-width: 200px; text-align: center;"><span class="nodeLabel"><p>Pareto Engine<br />(non-dominated frontier)</p></span></div></foreignObject></g></g><g class="node default" id="flowchart-YAML-28" transform="translate(1852.703125, 204)"><rect class="basic label-container" style="" x="-130" y="-63" width="260" height="126"/><g class="label" style="" transform="translate(-100, -48)"><rect/><foreignObject width="200" height="96"><div xmlns="http://www.w3.org/1999/xhtml" style="display: table; white-space: break-spaces; line-height: 1.5; max-width: 200px; text-align: center; width: 200px;"><span class="nodeLabel"><p>Framework YAML Registry<br />(eu_altai.yaml, nist_ai_rmf.yaml, sg_mgaf.yaml)</p></span></div></foreignObject></g></g><g class="node default" id="flowchart-DB-29" transform="translate(1852.703125, 368)"><rect class="basic label-container" style="" x="-130" y="-51" width="260" height="102"/><g class="label" style="" transform="translate(-100, -36)"><rect/><foreignObject width="200" height="72"><div xmlns="http://www.w3.org/1999/xhtml" style="display: table; white-space: break-spaces; line-height: 1.5; max-width: 200px; text-align: center; width: 200px;"><span class="nodeLabel"><p>SQLite DB (stakeholders, profiles)<br />(optional persistence)</p></span></div></foreignObject></g></g><g class="node default" id="flowchart-LOG-30" transform="translate(1852.703125, 496)"><rect class="basic label-container" style="" x="-111.328125" y="-27" width="222.65625" height="54"/><g class="label" style="" transform="translate(-81.328125, -12)"><rect/><foreignObject width="162.65625" height="24"><div xmlns="http://www.w3.org/1999/xhtml" style="display: table-cell; white-space: nowrap; line-height: 1.5; max-width: 200px; text-align: center;"><span class="nodeLabel"><p>Audit / Logs (optional)</p></span></div></foreignObject></g></g><g class="node default" id="flowchart-PYT-31" transform="translate(397.703125, 604)"><rect class="basic label-container" style="" x="-130" y="-51" width="260" height="102"/><g class="label" style="" transform="translate(-100, -36)"><rect/><foreignObject width="200" height="72"><div xmlns="http://www.w3.org/1999/xhtml" style="display: table; white-space: break-spaces; line-height: 1.5; max-width: 200px; text-align: center; width: 200px;"><span class="nodeLabel"><p>Pytest E2E + Edge Case Suite<br />(31 tests)</p></span></div></foreignObject></g></g><g class="node default" id="flowchart-CI-32" transform="translate(125.3515625, 604)"><rect class="basic label-container" style="" x="-92.3515625" y="-27" width="184.703125" height="54"/><g class="label" style="" transform="translate(-62.3515625, -12)"><rect/><foreignObject width="124.703125" height="24"><div xmlns="http://www.w3.org/1999/xhtml" style="display: table-cell; white-space: nowrap; line-height: 1.5; max-width: 200px; text-align: center;"><span class="nodeLabel"><p>GitHub Actions CI</p></span></div></foreignObject></g></g></g></g></g></svg>